# Blender 5.1.1
# www.blender.org
mtllib Boulder_02_Jagged.mtl
o Boulder_02_Jagged
v 0.703211 0.456329 -0.356477
v 1.276882 -0.544170 -0.060068
v 1.272943 -0.222566 -0.471086
v 1.292351 0.025215 0.426955
v 1.128343 0.507112 -0.076599
v 0.661080 0.454922 -0.547099
v 1.084870 -0.674921 -0.423772
v 0.752923 -0.243427 -1.089825
v 0.597592 -0.885297 -1.045039
v 0.542224 0.974259 0.485540
v 0.909415 0.520144 0.436581
v 0.192172 1.174060 0.150961
v 0.342318 -0.125949 1.169193
v 0.824574 -0.460448 0.414479
v 0.915961 0.381488 0.697493
v 0.176673 0.056417 1.247108
v 0.379893 -1.174060 -0.452176
v 0.224282 -0.489198 0.357445
v -0.052089 -0.506507 0.656552
v 0.334534 -0.487032 -1.247108
v -0.960606 -0.637725 -0.529692
v -0.251037 0.593287 -0.911744
v 0.311216 0.697160 -0.703247
v -1.006601 0.390387 -0.582435
v -0.068662 0.789015 0.913881
v -0.715872 -0.888830 -0.150141
v -0.998934 -0.196441 -0.853156
v -0.406419 1.153665 0.553555
v -0.808825 0.296572 0.944941
v -0.859773 0.493428 0.566720
v -0.955308 -0.204241 0.705360
v -0.418667 -0.441194 0.609495
v -1.274210 0.009592 0.260354
v -1.306759 -0.444435 0.121211
v -1.041808 0.361900 0.418817
v -0.880450 0.407799 0.066420
v -0.831123 0.722141 -0.270560
v -0.615577 -0.623531 0.385390
v 0.068781 1.011495 -0.366087
v -0.544027 -0.304759 -1.157484
v 0.009363 -0.713115 0.232378
v 0.226851 0.239906 -0.920190
v -0.196997 -1.011617 -0.624583
v 0.669723 -0.900718 -0.099981
v 0.459663 -0.660782 0.309745
v 0.633562 0.900062 -0.137569
v 0.561974 0.161191 -0.528239
v 1.021184 -0.555930 -0.891676
v 0.949451 -0.037356 -0.662677
v 1.306759 -0.005892 -0.105303
vn 0.3823 -0.2519 -0.8890
vn 0.6050 0.7839 -0.1395
vn 0.7328 0.3901 -0.5575
vn -0.6281 -0.7710 -0.1051
vn -0.8233 0.5641 -0.0625
vn -0.5129 0.8494 -0.1242
vn -0.8827 0.4011 0.2449
vn -0.6767 0.1196 0.7265
vn -0.7470 0.6108 -0.2625
vn -0.4135 0.6952 0.5880
vn -0.8638 0.5016 -0.0476
vn -0.9606 0.1061 -0.2571
vn -0.9532 0.1490 -0.2632
vn -0.8684 -0.3400 -0.3609
vn -0.7365 0.2274 0.6371
vn -0.4005 -0.2421 0.8837
vn -0.6996 -0.6947 0.1675
vn -0.1748 -0.6829 0.7093
vn -0.3847 -0.7964 0.4666
vn -0.9595 0.1752 0.2204
vn -0.0261 -0.4252 0.9047
vn -0.1963 -0.4900 0.8493
vn -0.3646 -0.5994 0.7126
vn -0.7597 0.5292 0.3778
vn -0.1952 0.3512 0.9157
vn -0.3060 0.5106 0.8035
vn 0.3164 0.8807 -0.3524
vn -0.2004 0.9473 -0.2500
vn -0.3207 0.8969 -0.3044
vn 0.3548 0.7973 -0.4882
vn 0.0968 0.7618 -0.6406
vn -0.3161 0.8334 -0.4534
vn -0.0407 0.2760 -0.9603
vn -0.4529 0.3698 -0.8113
vn -0.4548 0.3682 -0.8109
vn -0.5566 -0.5220 -0.6462
vn -0.4502 -0.8504 -0.2723
vn -0.3546 -0.8532 0.3826
vn 0.0635 -0.9471 0.3146
vn -0.0189 -0.8945 0.4467
vn 0.0363 -0.7906 0.6113
vn -0.0714 -0.3569 0.9314
vn 0.0050 -0.9130 0.4079
vn 0.4042 -0.8554 0.3240
vn -0.3380 -0.6124 0.7147
vn 0.3744 0.4849 0.7904
vn 0.7591 0.5825 0.2905
vn 0.3818 0.5151 0.7674
vn -0.4285 0.7288 -0.5341
vn 0.2609 0.3741 -0.8899
vn 0.3013 0.4279 -0.8521
vn 0.5444 0.2755 -0.7923
vn -0.4050 -0.6688 -0.6234
vn -0.1960 -0.5436 -0.8162
vn -0.2666 -0.6602 -0.7022
vn -0.2104 -0.8905 0.4033
vn 0.0612 -0.8123 0.5801
vn 0.5163 -0.7381 0.4343
vn 0.0123 -0.8601 0.5100
vn -0.1093 -0.4027 0.9088
vn 0.5481 0.1460 0.8236
vn 0.5640 -0.5588 0.6080
vn 0.6106 0.0447 0.7907
vn 0.7596 0.5821 0.2903
vn 0.3168 0.7988 0.5115
vn 0.0588 0.8830 0.4657
vn 0.7791 0.6257 0.0397
vn 0.5146 0.8570 -0.0266
vn 0.5875 0.7756 0.2309
vn 0.4527 0.4506 -0.7694
vn 0.9240 -0.3247 -0.2018
vn 0.7015 -0.2788 -0.6558
vn -0.0335 0.5147 -0.8567
vn 0.2452 0.8242 -0.5104
vn 0.5739 0.7444 -0.3412
vn 0.0948 0.4200 -0.9026
vn 0.7817 0.3392 -0.5233
vn 0.4374 -0.1828 -0.8805
vn 0.4416 -0.1566 -0.8834
vn 0.9806 0.1749 -0.0890
vn 0.6500 -0.7106 -0.2692
vn 0.5733 -0.7996 -0.1789
vn -0.1076 -0.8777 -0.4670
vn 0.5659 -0.8085 0.1618
vn 0.6891 -0.4133 0.5953
vn 0.8642 -0.3923 -0.3152
vn 0.1178 -0.9527 0.2803
vn 0.3767 -0.8626 0.3377
vn 0.3800 0.6170 -0.6892
vn 0.8838 0.2867 0.3698
vn 0.7937 0.3055 -0.5260
vn 0.6279 0.6428 -0.4388
vn 0.9966 -0.0601 -0.0566
vn 0.7253 0.0176 0.6882
vn 0.7182 -0.6933 0.0600
vn 0.7907 0.6121 -0.0144
vt 0.727273 0.000000
vt 0.768183 0.070859
vt 0.704546 0.039365
vt 0.415439 0.134625
vt 0.485370 0.132120
vt 0.495598 0.200034
vt 0.392417 0.196826
vt 0.715948 0.303972
vt 0.786422 0.291201
vt 0.778348 0.376795
vt 0.381761 0.329901
vt 0.494541 0.385925
vt 0.421908 0.415850
vt 0.468322 0.417512
vt 0.511342 0.330107
vt 0.613637 0.433017
vt 0.647937 0.413697
vt 0.636364 0.472382
vt 0.590909 0.393651
vt 0.565273 0.349246
vt 0.590835 0.312350
vt 0.653848 0.284637
vt 0.684213 0.387046
vt 0.795455 0.433017
vt 0.847409 0.421759
vt 0.818182 0.472382
vt 0.843372 0.339769
vt 0.889555 0.348759
vt 0.061683 0.421759
vt 0.122247 0.418103
vt 0.090910 0.472382
vt 0.046053 0.349864
vt 0.068843 0.285687
vt 0.200099 0.297746
vt 0.257680 0.403960
vt 0.364464 0.329901
vt 0.305366 0.415850
vt 0.302528 0.299528
vt 0.455720 0.240411
vt 0.397219 0.256755
vt 0.547607 0.237578
vt 0.677723 0.157970
vt 0.654557 0.231354
vt 0.767632 0.221312
vt 0.815384 0.165738
vt 0.889019 0.249435
vt 0.072884 0.188683
vt 0.126953 0.159956
vt 0.053603 0.236191
vt 0.163501 0.266520
vt 0.251052 0.199075
vt 0.290394 0.186205
vt 0.331499 0.236191
vt 0.573842 0.176250
vt 0.736699 0.141134
vt 0.931818 0.275556
vt 0.888633 0.157917
vt 0.954545 0.236191
vt 0.949648 0.188683
vt 0.212430 0.140834
vt 0.336123 0.133006
vt 0.500000 0.078731
vt 0.524042 0.118096
vt 0.544765 0.062156
vt 0.602955 0.099595
vt 0.725746 0.081376
vt 0.669773 0.099595
vt 0.812633 0.165738
vt 0.889283 0.076673
vt 0.911790 0.004675
vt 0.954545 0.078731
vt 0.977273 0.118096
vt 0.380148 0.050133
vt 0.287445 0.131970
vt 0.318182 0.078731
vt 0.359231 0.007632
vt 0.184049 0.011401
vt 0.215466 0.078731
vt 0.136365 0.078731
s 0
usemtl Boulder_02_Jagged_Mat
f 3/1/1 7/2/1 49/3/1
f 1/4/2 6/5/2 23/6/2
f 1/4/3 23/6/3 46/7/3
f 21/8/4 26/9/4 34/10/4
f 28/11/5 36/12/5 30/13/5
f 30/13/6 36/12/6 35/14/6
f 28/11/7 37/15/7 36/12/7
f 35/16/8 33/17/8 30/18/8
f 36/19/9 33/17/9 35/16/9
f 37/20/10 33/17/10 36/19/10
f 37/20/11 24/21/11 33/17/11
f 24/21/12 27/22/12 33/17/12
f 33/17/13 27/22/13 34/23/13
f 27/22/14 21/8/14 34/23/14
f 33/24/15 31/25/15 30/26/15
f 34/10/16 38/27/16 33/24/16
f 33/24/17 38/27/17 31/25/17
f 38/27/18 32/28/18 31/25/18
f 26/9/19 38/27/19 34/10/19
f 31/29/20 29/30/20 30/31/20
f 31/29/21 32/32/21 29/30/21
f 32/32/22 19/33/22 29/30/22
f 19/33/23 16/34/23 29/30/23
f 29/35/24 28/36/24 30/37/24
f 16/34/25 25/38/25 29/35/25
f 29/35/26 25/38/26 28/36/26
f 46/7/27 39/39/27 12/40/27
f 12/40/28 39/39/28 28/11/28
f 39/39/29 37/15/29 28/11/29
f 46/7/30 23/6/30 39/39/30
f 23/6/31 22/41/31 39/39/31
f 39/39/32 22/41/32 37/15/32
f 20/42/33 40/43/33 22/41/33
f 22/41/34 40/43/34 24/21/34
f 40/43/35 27/22/35 24/21/35
f 40/43/36 21/8/36 27/22/36
f 43/44/37 26/9/37 21/8/37
f 17/45/38 41/46/38 43/44/38
f 43/44/39 41/46/39 26/9/39
f 41/46/40 38/27/40 26/9/40
f 41/46/41 32/28/41 38/27/41
f 45/47/42 14/48/42 18/49/42
f 14/48/43 13/50/43 18/49/43
f 18/49/44 13/50/44 19/33/44
f 13/50/45 16/34/45 19/33/45
f 15/51/46 25/38/46 16/34/46
f 11/52/47 10/53/47 15/51/47
f 15/51/48 10/53/48 25/38/48
f 22/41/49 24/21/49 37/15/49
f 23/6/50 42/54/50 22/41/50
f 42/54/51 20/42/51 22/41/51
f 6/5/52 42/54/52 23/6/52
f 40/43/53 43/44/53 21/8/53
f 20/42/54 9/55/54 40/43/54
f 40/43/55 9/55/55 43/44/55
f 41/46/56 19/56/56 32/28/56
f 17/45/57 44/57/57 41/46/57
f 41/46/58 18/58/58 19/56/58
f 44/57/59 45/59/59 41/46/59
f 41/46/60 45/59/60 18/58/60
f 13/50/61 15/51/61 16/34/61
f 14/48/62 4/60/62 13/50/62
f 13/50/63 4/60/63 15/51/63
f 4/60/64 11/52/64 15/51/64
f 25/38/65 12/40/65 28/36/65
f 25/38/66 10/53/66 12/40/66
f 11/52/67 46/7/67 10/53/67
f 10/53/68 46/7/68 12/40/68
f 11/52/69 5/61/69 46/7/69
f 5/61/70 1/4/70 46/7/70
f 1/62/71 47/63/71 6/5/71
f 47/63/72 42/54/72 6/5/72
f 1/62/73 49/64/73 47/63/73
f 49/64/74 8/65/74 47/63/74
f 47/63/75 8/65/75 42/54/75
f 8/65/76 20/42/76 42/54/76
f 49/3/77 48/66/77 8/67/77
f 8/67/78 48/66/78 20/42/78
f 48/66/79 9/55/79 20/42/79
f 49/3/80 7/2/80 48/66/80
f 48/66/81 7/2/81 9/55/81
f 7/2/82 17/68/82 9/55/82
f 9/55/83 17/68/83 43/44/83
f 17/45/84 7/69/84 44/57/84
f 7/69/85 45/59/85 44/57/85
f 3/70/86 2/71/86 7/69/86
f 2/71/87 14/72/87 7/69/87
f 7/69/88 14/72/88 45/59/88
f 5/61/89 49/73/89 1/4/89
f 11/74/90 50/75/90 5/61/90
f 5/61/91 50/75/91 49/73/91
f 50/75/92 3/76/92 49/73/92
f 3/77/93 50/78/93 2/79/93
f 2/79/94 50/78/94 14/48/94
f 50/78/95 4/60/95 14/48/95
f 50/78/96 11/52/96 4/60/96
