# Blender 5.1.1
# www.blender.org
mtllib Boulder_05_Chunky.mtl
o Boulder_05_Chunky
v -0.706069 -1.575261 1.029677
v -1.866416 -0.309617 0.018399
v 0.727272 0.340842 1.889555
v 1.866416 0.100650 -0.038211
v -0.227723 -1.695800 0.471382
v -1.390975 -1.006327 0.580641
v -1.560060 -0.608234 0.257496
v -1.063790 -0.340969 -0.621058
v -0.411251 -0.489971 -1.889555
v -0.039046 -0.884867 -1.495842
v 0.710063 -1.570810 -0.766304
v 1.170799 -1.167644 -0.651391
v 0.960606 1.484002 -1.164459
v 1.468473 0.263985 -0.231992
v 1.555335 0.165017 0.396388
v 0.502920 1.505837 -0.634476
v 0.138704 1.360284 -0.138942
v -0.627671 1.695800 0.876200
v 0.272644 0.654295 1.538207
v 0.253498 -0.176009 1.555984
v -1.043658 0.467250 0.328624
v -1.291320 0.042665 0.142954
v -0.954531 -1.222353 0.020611
v -0.200495 -1.169673 -0.791795
v -0.543604 -0.585353 -0.837312
v 0.722449 -0.804786 -1.090977
v 1.128665 0.026908 -0.677403
v 0.585360 -0.175474 -1.191912
v 0.691672 0.663315 0.944490
v 0.696404 0.794267 0.336564
v 0.448007 0.961090 0.825078
v -0.514320 0.396907 0.912405
v -0.869735 -0.434651 0.900159
v 1.125323 -0.652892 0.292959
v 0.169958 -1.118918 0.759972
v 0.797433 -0.383564 0.832828
v -0.020394 0.880557 -0.877519
v -0.679313 -0.114707 -0.978897
v -0.274388 0.965532 -0.090970
v -1.030563 -0.012249 -0.116160
vn -0.6568 -0.4199 -0.6264
vn -0.4475 -0.8727 -0.1950
vn -0.5771 -0.8047 -0.1393
vn -0.7317 -0.5891 -0.3429
vn -0.5301 -0.6802 -0.5063
vn -0.6412 -0.7528 -0.1489
vn -0.3669 -0.8559 -0.3644
vn 0.4999 -0.3448 -0.7945
vn 0.6035 -0.2006 -0.7717
vn 0.7086 -0.1488 -0.6897
vn 0.6387 0.7511 0.1668
vn 0.6348 0.7567 0.1562
vn 0.3352 0.9367 0.1012
vn 0.5621 0.6371 0.5274
vn 0.7320 0.2811 0.6206
vn 0.6030 0.6682 0.4358
vn 0.5947 0.7674 0.2395
vn -0.6518 0.2681 0.7094
vn -0.5978 0.0309 0.8011
vn -0.5373 0.0186 0.8432
vn -0.5083 0.0248 0.8608
vn 0.5540 -0.7243 0.4105
vn 0.5341 -0.7313 0.4243
vn 0.7403 -0.5747 0.3489
vn 0.6987 -0.4388 0.5651
vn 0.6630 -0.4264 0.6154
vn 0.6789 -0.5838 0.4453
vn 0.5102 -0.6394 0.5752
vn 0.6371 -0.6480 0.4173
vn -0.7778 0.5466 -0.3102
vn -0.7315 0.5752 -0.3661
vn -0.5399 0.5942 -0.5962
vn -0.7308 0.5279 -0.4327
vn -0.6981 0.6202 -0.3579
vn -0.5114 0.5768 -0.6369
vn -0.5810 0.5333 -0.6149
vn 0.6738 0.0077 -0.7388
vn -0.4028 -0.7872 -0.4670
vn -0.4676 -0.8731 -0.1380
vn -0.7850 -0.4904 -0.3784
vn -0.3561 -0.8350 -0.4194
vn -0.3362 -0.8668 -0.3683
vn 0.4722 -0.0384 -0.8806
vn 0.6811 0.0311 -0.7315
vn 0.4681 -0.3513 -0.8109
vn 0.5946 -0.1213 -0.7948
vn 0.8155 -0.0967 -0.5707
vn 0.5365 0.5035 -0.6773
vn -0.7366 0.2549 0.6264
vn 0.7354 0.6612 0.1482
vn 0.6708 0.7362 0.0897
vn 0.5622 0.8122 0.1560
vn 0.5201 0.7307 0.4422
vn 0.3850 0.8778 0.2850
vn 0.5274 0.8475 0.0606
vn -0.6732 -0.0382 0.7385
vn -0.6858 0.3348 0.6462
vn -0.3787 0.3098 0.8721
vn 0.5349 -0.5722 0.6217
vn -0.5092 0.0302 0.8601
vn 0.5676 -0.5454 0.6168
vn 0.4259 -0.7328 0.5307
vn -0.3605 0.7861 -0.5021
vn -0.5544 0.6607 -0.5060
vn -0.7216 0.5390 -0.4345
vn -0.6755 0.6763 -0.2938
vn -0.6425 0.5116 -0.5705
vn -0.6393 0.4831 -0.5983
vt 0.488517 0.179242
vt 0.486802 0.062500
vt 0.562500 0.001434
vt 0.562500 0.155616
vt 0.378229 0.000000
vt 0.375000 0.076017
vt 0.500000 0.000000
vt 0.625000 0.103620
vt 0.625000 0.250639
vt 0.548145 0.250818
vt 0.375154 0.250729
vt 0.460872 0.314790
vt 0.375000 0.326118
vt 0.544610 0.383141
vt 0.624653 0.499087
vt 0.473236 0.437500
vt 0.438322 0.502483
vt 0.500000 0.625000
vt 0.437500 0.674787
vt 0.623078 0.622746
vt 0.375000 0.571037
vt 0.371787 0.500000
vt 0.625000 0.562500
vt 0.500484 0.687500
vt 0.439448 0.750547
vt 0.375052 0.737644
vt 0.500000 0.837245
vt 0.482096 0.937645
vt 0.375000 0.819424
vt 0.500000 1.000000
vt 0.378229 0.999749
vt 0.268872 0.569013
vt 0.187500 0.677530
vt 0.125837 0.500106
vt 0.201118 0.500000
vt 0.290876 0.646624
vt 0.125265 0.750000
vt 0.125000 0.673983
vt 0.812500 0.594974
vt 0.698624 0.648432
vt 0.706553 0.562500
vt 0.809180 0.687500
vt 0.874326 0.500035
vt 0.875000 0.646380
vt 0.812500 0.750000
vt 0.743799 0.750000
vt 0.625535 0.749465
vt 0.375000 0.496787
vt 0.625000 0.000000
vt 0.618913 0.937500
vt 0.632095 0.870923
vt 0.562500 1.000000
vt 0.625000 1.000000
vt 0.305576 0.750000
vt 0.875000 0.750000
s 0
usemtl Boulder_05_Chunky_Mat
f 24/1/1 23/2/1 7/3/1 25/4/1
f 1/5/2 23/2/2 5/6/2
f 6/7/3 23/2/3 1/5/3
f 7/3/4 23/2/4 6/7/4
f 7/3/5 8/8/5 25/4/5
f 9/9/6 10/10/6 25/4/6
f 24/1/7 11/11/7 5/6/7
f 11/11/8 26/12/8 12/13/8
f 10/10/9 9/9/9 28/14/9
f 28/14/10 13/15/10 27/16/10
f 14/17/11 30/18/11 29/19/11
f 17/20/12 30/18/12 14/17/12
f 14/17/13 15/21/13 4/22/13
f 13/15/14 17/20/14 14/17/14
f 13/15/15 16/23/15 17/20/15
f 31/24/16 19/25/16 29/19/16
f 15/21/17 29/19/17 3/26/17
f 19/25/18 32/27/18 33/28/18
f 19/25/19 20/29/19 3/26/19
f 33/28/20 6/30/20 1/31/20
f 33/28/21 1/31/21 20/29/21
f 34/32/22 35/33/22 11/34/22
f 12/35/23 34/32/23 11/34/23
f 4/22/24 34/32/24 12/35/24
f 4/22/25 15/21/25 34/32/25
f 15/21/26 36/36/26 34/32/26
f 15/21/27 3/26/27 36/36/27
f 35/33/28 1/37/28 5/38/28
f 11/34/29 35/33/29 5/38/29
f 38/39/30 39/40/30 37/41/30
f 38/39/31 40/42/31 39/40/31
f 9/43/32 37/41/32 13/15/32
f 9/43/33 38/39/33 37/41/33
f 8/44/34 40/42/34 38/39/34
f 40/42/35 22/45/35 21/46/35
f 17/20/36 39/40/36 18/47/36
f 4/48/37 12/13/37 26/12/37 27/16/37
f 7/3/38 2/49/38 8/8/38
f 8/8/39 9/9/39 25/4/39
f 24/1/40 25/4/40 10/10/40
f 24/1/41 10/10/41 11/11/41
f 23/2/42 24/1/42 5/6/42
f 26/12/43 10/10/43 28/14/43
f 26/12/44 28/14/44 27/16/44
f 11/11/45 10/10/45 26/12/45
f 9/9/46 13/15/46 28/14/46
f 27/16/47 13/15/47 14/17/47
f 4/48/48 27/16/48 14/17/48
f 22/50/49 33/28/49 32/27/49 21/51/49
f 30/18/50 31/24/50 29/19/50
f 30/18/51 17/20/51 31/24/51
f 17/20/52 18/47/52 31/24/52
f 31/24/53 18/47/53 19/25/53
f 3/26/54 29/19/54 19/25/54
f 15/21/55 14/17/55 29/19/55
f 21/51/56 32/27/56 19/25/56 18/47/56
f 7/52/57 6/30/57 33/28/57 22/50/57
f 22/50/58 2/53/58 7/52/58
f 1/37/59 35/33/59 36/36/59 20/54/59
f 20/29/60 19/25/60 33/28/60
f 34/32/61 36/36/61 35/33/61
f 36/36/62 3/26/62 20/54/62
f 22/45/63 40/42/63 8/44/63 2/55/63
f 13/15/64 37/41/64 16/23/64
f 38/39/65 9/43/65 8/44/65
f 17/20/66 16/23/66 37/41/66 39/40/66
f 39/40/67 40/42/67 21/46/67
f 18/47/68 39/40/68 21/46/68
