# Blender 5.1.1
# www.blender.org
mtllib Boulder_08_Massive.mtl
o Boulder_08_Massive
v 0.861392 -1.892163 0.194333
v -0.658536 -1.384406 -0.493673
v -0.238086 -1.453406 1.038694
v -1.606091 -0.053133 0.527309
v 0.038075 -0.736633 1.498789
v -0.529646 0.111687 -1.497215
v -0.334373 -0.622551 -1.312907
v -1.241644 0.158818 -1.124171
v 0.324722 -0.855794 -1.021996
v -1.181915 -0.754617 -0.778839
v -0.710654 -0.609882 -0.963153
v -0.719072 1.651802 -1.155077
v 0.555085 0.614417 -1.467925
v -1.693354 1.477328 -0.707338
v -1.381033 1.891965 -0.707770
v 1.627962 -0.224641 -0.994019
v 0.635350 1.245261 -1.152519
v 1.227043 1.209875 -0.144506
v 1.543817 -0.811932 0.459257
v 1.836914 -0.745411 -0.075184
v -0.467322 -1.825906 0.551334
v 0.411965 -1.653204 1.153155
v -0.712635 -1.826154 0.027167
v -1.551787 -0.894448 0.240267
v -0.334580 1.968829 -0.600238
v -1.452710 1.855628 -0.089506
v 0.502746 1.182211 0.900317
v -0.525544 1.552171 0.777544
v 0.491607 0.363951 1.205104
v 0.124592 -1.254181 1.466753
v -1.174973 -0.278726 0.824532
v -0.957014 0.221106 1.173799
v -1.836914 1.142356 0.174840
v 1.343411 -1.048104 1.123554
v 1.392818 0.038240 0.870965
v 1.139512 0.714242 0.347754
v 0.607098 1.531461 0.021534
v -0.842105 2.039004 0.223290
v -1.668540 -0.261622 -0.508649
v -0.884924 -1.356450 0.939798
v 1.249704 -1.642146 0.229436
v 1.576837 0.379360 -0.089470
v 0.110418 1.990078 -1.031730
v 0.451524 -2.039004 0.739404
v 0.525122 -1.561114 -0.475133
v 1.206791 0.924916 -1.047694
v 1.344881 0.347586 -0.838997
v -0.705226 0.792240 -1.498789
v 1.191450 -0.952455 -0.688361
v 0.630551 0.099134 -1.351215
vn 0.4804 -0.6660 -0.5706
vn 0.4766 0.5757 0.6644
vn -0.3288 -0.7185 0.6129
vn -0.0502 0.2999 0.9527
vn -0.0480 0.2759 0.9600
vn -0.4824 0.3899 0.7844
vn -0.7855 -0.0857 0.6129
vn -0.5098 0.4807 0.7134
vn -0.4855 0.5215 0.7017
vn -0.5055 0.1528 0.8492
vn -0.7460 -0.1309 0.6529
vn -0.4356 -0.1515 0.8873
vn -0.4485 -0.1297 0.8843
vn -0.2055 -0.8091 0.5506
vn 0.2732 -0.0139 0.9619
vn 0.3020 0.1276 0.9447
vn 0.3115 -0.4383 0.8431
vn 0.4010 0.1901 0.8961
vn 0.4595 0.6449 0.6107
vn 0.7288 0.2303 0.6448
vn 0.9545 0.0257 0.2971
vn 0.7271 0.6040 0.3264
vn 0.0136 0.3489 0.9371
vn 0.3524 0.8546 0.3815
vn 0.2165 0.7915 0.5715
vn 0.3440 0.9295 0.1328
vn -0.1877 0.9621 -0.1977
vn -0.7925 -0.0804 -0.6045
vn -0.7975 0.6006 -0.0572
vn -0.8730 0.4860 0.0425
vn -0.9843 -0.0338 -0.1730
vn -0.9824 -0.1626 0.0919
vn -0.6406 -0.2847 0.7131
vn -0.7606 -0.1368 0.6347
vn -0.6999 -0.6802 0.2180
vn -0.5922 -0.7565 0.2775
vn -0.2090 -0.7271 0.6540
vn 0.6272 -0.5388 0.5624
vn 0.5229 -0.8357 0.1680
vn 0.4983 -0.7453 0.4430
vn 0.9188 -0.3662 0.1470
vn 0.8783 -0.0729 0.4726
vn 0.9404 0.2207 0.2586
vn 0.7623 0.5499 0.3414
vn 0.9702 0.2231 -0.0942
vn 0.7830 0.3632 0.5050
vn 0.7170 0.5703 -0.4008
vn 0.4861 0.8616 0.1460
vn 0.2381 0.9266 0.2912
vn 0.3474 0.3836 -0.8557
vn 0.0163 0.3070 -0.9516
vn -0.3241 0.9005 -0.2899
vn -0.9928 -0.0907 0.0781
vn -0.6746 -0.6123 -0.4123
vn -0.6955 -0.5108 -0.5054
vn -0.5129 -0.5004 -0.6975
vn -0.3919 0.1135 -0.9130
vn -0.7378 -0.6652 -0.1150
vn -0.2952 -0.6870 0.6640
vn 0.1767 -0.9808 -0.0822
vn -0.3276 -0.7064 0.6274
vn -0.1374 -0.9189 -0.3699
vn -0.1641 -0.9145 -0.3698
vn 0.8228 -0.4025 0.4011
vn 0.4591 -0.6960 -0.5521
vn 0.6480 -0.5886 -0.4834
vn 0.6473 -0.5906 -0.4819
vn 0.8292 0.4853 -0.2772
vn 0.9159 0.3765 -0.1393
vn 0.5080 0.8181 -0.2695
vn 0.9471 0.1188 -0.2981
vn 0.4245 0.4264 -0.7988
vn 0.6083 -0.1371 -0.7818
vn 0.5725 -0.1004 -0.8137
vn 0.3678 0.3780 -0.8496
vn -0.0782 0.9957 0.0495
vn 0.0750 0.3713 -0.9255
vn -0.0138 0.8723 -0.4888
vn -0.4423 0.3323 -0.8330
vn -0.4423 0.3268 -0.8352
vn -0.6060 0.0435 -0.7943
vn -0.4670 -0.1225 -0.8758
vn -0.5858 -0.5326 -0.6109
vn -0.1683 -0.5192 -0.8379
vn 0.0356 -0.7388 -0.6730
vn -0.6203 -0.4367 -0.6515
vn -0.1023 -0.7534 -0.6496
vn -0.0811 -0.6250 -0.7764
vn 0.2462 -0.5492 -0.7986
vn 0.0251 0.0042 -0.9997
vn -0.4553 -0.3288 -0.8274
vn 0.1201 -0.2025 -0.9719
vn 0.1129 -0.3560 -0.9277
vn 0.3593 -0.1362 -0.9232
vn 0.2916 -0.3939 -0.8717
vn 0.1618 -0.4630 -0.8715
vt 0.802624 0.184409
vt 0.870208 0.091544
vt 0.867479 0.214424
vt 0.188718 0.304492
vt 0.240434 0.330304
vt 0.204546 0.354286
vt 0.703427 0.307043
vt 0.764793 0.301177
vt 0.757054 0.354286
vt 0.408229 0.395145
vt 0.499441 0.393651
vt 0.431819 0.433017
vt 0.476102 0.435046
vt 0.457448 0.313344
vt 0.522728 0.354286
vt 0.386364 0.354286
vt 0.406406 0.314921
vt 0.533036 0.311144
vt 0.579093 0.335388
vt 0.647222 0.281879
vt 0.590909 0.393651
vt 0.675932 0.394065
vt 0.704546 0.354286
vt 0.864885 0.325917
vt 0.774615 0.394669
vt 0.842635 0.430027
vt 0.022727 0.354286
vt 0.073098 0.345772
vt 0.090135 0.430027
vt 0.139731 0.337565
vt 0.136365 0.393651
vt 0.019770 0.279396
vt 0.249207 0.393651
vt 0.318182 0.393651
vt 0.253338 0.433017
vt 0.338112 0.354286
vt 0.328788 0.296551
vt 0.449285 0.162680
vt 0.527036 0.205663
vt 0.422338 0.259135
vt 0.386364 0.275556
vt 0.581495 0.252497
vt 0.659531 0.193468
vt 0.681818 0.236191
vt 0.762314 0.236191
vt 0.925480 0.275099
vt 0.059233 0.213771
vt 0.130110 0.267359
vt 0.118074 0.155236
vt 0.242474 0.209863
vt 0.282639 0.253358
vt 0.296204 0.121368
vt 0.346238 0.236191
vt 0.614587 0.137506
vt 0.530764 0.121278
vt 0.545455 0.157461
vt 0.760288 0.101945
vt 0.959291 0.213049
vt 0.935328 0.130681
vt 1.000000 0.157461
vt 0.159092 0.196826
vt 0.196640 0.210521
vt 0.202532 0.116063
vt 0.237359 0.150427
vt 0.366643 0.165625
vt 0.380423 0.113607
vt 0.521271 0.065644
vt 0.466302 0.137099
vt 0.552519 0.012236
vt 0.639148 0.139047
vt 0.740063 0.030316
vt 0.914056 0.041210
vt 0.401536 0.065644
vt 0.318182 0.078731
vt 0.358002 0.009760
vt 0.168552 0.029490
vt 0.128072 0.093093
s 0
usemtl Boulder_08_Massive_Mat
f 1/1/1 45/2/1 41/3/1
f 18/4/2 37/5/2 36/6/2
f 3/7/3 22/8/3 30/9/3
f 28/10/4 32/11/4 29/12/4
f 29/12/5 32/11/5 5/13/5
f 28/10/6 33/14/6 32/11/6
f 33/14/7 31/15/7 32/11/7
f 38/16/8 26/17/8 28/10/8
f 26/17/9 33/14/9 28/10/9
f 33/14/10 4/18/10 31/15/10
f 31/19/11 40/20/11 32/21/11
f 32/21/12 40/20/12 5/22/12
f 40/20/13 30/23/13 5/22/13
f 40/20/14 3/7/14 30/23/14
f 30/9/15 34/24/15 5/25/15
f 5/25/16 34/24/16 29/26/16
f 22/8/17 34/24/17 30/9/17
f 34/27/18 35/28/18 29/29/18
f 35/28/19 36/30/19 29/29/19
f 29/29/20 36/30/20 27/31/20
f 34/27/21 19/32/21 35/28/21
f 36/6/22 37/5/22 27/33/22
f 27/33/23 28/34/23 29/35/23
f 37/5/24 38/36/24 27/33/24
f 27/33/25 38/36/25 28/34/25
f 37/5/26 25/37/26 38/36/26
f 25/37/27 26/17/27 38/36/27
f 8/38/28 39/39/28 14/40/28
f 15/41/29 14/40/29 26/17/29
f 14/40/30 33/14/30 26/17/30
f 39/39/31 33/14/31 14/40/31
f 39/39/32 4/18/32 33/14/32
f 24/42/33 31/19/33 4/18/33
f 24/42/34 40/20/34 31/19/34
f 24/42/35 23/43/35 40/20/35
f 23/43/36 21/44/36 40/20/36
f 21/44/37 3/7/37 40/20/37
f 44/45/38 41/3/38 22/8/38
f 1/1/39 41/3/39 44/45/39
f 41/3/40 34/24/40 22/8/40
f 41/3/41 19/46/41 34/24/41
f 20/47/42 35/28/42 19/32/42
f 20/47/43 42/48/43 35/28/43
f 42/48/44 36/30/44 35/28/44
f 20/47/45 16/49/45 42/48/45
f 42/48/46 18/4/46 36/30/46
f 17/50/47 43/51/47 18/4/47
f 18/4/48 43/51/48 37/5/48
f 43/51/49 25/37/49 37/5/49
f 17/50/50 13/52/50 43/51/50
f 13/52/51 12/53/51 43/51/51
f 12/53/52 25/37/52 43/51/52
f 4/18/53 39/39/53 24/42/53
f 39/39/54 2/54/54 24/42/54
f 2/54/55 23/43/55 24/42/55
f 8/38/56 11/55/56 39/39/56
f 11/55/57 10/56/57 39/39/57
f 39/39/58 10/56/58 2/54/58
f 21/44/59 44/45/59 3/7/59
f 23/43/60 45/57/60 21/44/60
f 3/7/61 44/45/61 22/8/61
f 21/44/62 45/57/62 44/45/62
f 45/57/63 1/1/63 44/45/63
f 41/3/64 20/58/64 19/46/64
f 45/2/65 49/59/65 41/3/65
f 41/3/66 49/59/66 20/58/66
f 49/59/67 16/60/67 20/58/67
f 16/49/68 47/61/68 42/48/68
f 42/48/69 46/62/69 18/4/69
f 46/62/70 17/50/70 18/4/70
f 42/48/71 47/61/71 46/62/71
f 16/49/72 50/63/72 47/61/72
f 47/61/73 50/63/73 46/62/73
f 50/63/74 13/64/74 46/62/74
f 46/62/75 13/64/75 17/50/75
f 25/37/76 15/41/76 26/17/76
f 13/52/77 48/65/77 12/53/77
f 25/37/78 12/53/78 15/41/78
f 12/53/79 14/40/79 15/41/79
f 12/53/80 48/65/80 14/40/80
f 48/65/81 8/38/81 14/40/81
f 48/65/82 6/66/82 8/38/82
f 7/67/83 11/55/83 8/68/83
f 11/55/84 2/54/84 10/56/84
f 9/69/85 2/54/85 7/67/85
f 7/67/86 2/54/86 11/55/86
f 2/70/87 45/57/87 23/43/87
f 9/71/88 45/57/88 2/70/88
f 9/72/89 49/59/89 45/2/89
f 13/52/90 6/66/90 48/65/90
f 6/66/91 7/73/91 8/38/91
f 13/52/92 50/74/92 6/66/92
f 50/74/93 9/75/93 6/66/93
f 6/66/94 9/75/94 7/73/94
f 9/76/95 50/63/95 49/77/95
f 49/77/96 50/63/96 16/49/96
