# Blender 5.1.1
# www.blender.org
mtllib Boulder_04_Tall.mtl
o Boulder_04_Tall
v 0.103103 0.366608 1.442064
v -0.115595 1.111388 1.017467
v 1.157234 0.354430 -0.710723
v 0.921998 0.462813 -0.927503
v -0.941969 1.167528 0.624926
v 0.636211 0.411755 -1.217671
v -1.261571 0.841276 0.524827
v 0.273702 0.163818 -1.436209
v -1.445814 0.454009 0.616649
v 0.026976 -0.320372 -1.546280
v 0.055920 -0.704996 -1.560120
v -1.119240 -0.246085 0.956848
v -0.864584 -0.404977 1.280179
v 0.543834 -1.258909 -0.784827
v -0.078961 -0.018000 1.560120
v 1.101461 -1.090991 -0.458848
v -0.115483 -0.508569 0.915174
v 0.906832 -1.217506 -0.574551
v 0.936794 -0.540904 0.234141
v 0.624131 -0.394912 0.789104
v 0.243210 -0.225338 1.235598
v 1.430160 -0.540122 -0.362030
v 1.231121 -0.837048 -0.331829
v 1.047230 -0.110966 0.441823
v 0.476788 0.191890 1.126524
v 0.136784 0.654705 1.320486
v 1.445814 -0.080759 -0.444781
v 1.409204 -0.455719 -0.349344
v 0.942119 0.417191 0.387767
v 0.015568 0.938328 1.136527
v 1.317845 0.169816 -0.589545
v 1.366163 -0.003794 -0.481309
v 0.692072 0.696686 0.080147
v -0.210368 1.224931 0.987958
v -0.417905 1.336620 0.909277
v 0.983171 0.383662 -0.779541
v 0.398078 0.847559 -0.165779
v -0.076870 1.063905 0.371356
v -0.532740 1.291103 0.780236
v -0.757104 1.315395 0.725949
v -0.357125 0.774823 -0.037044
v -1.066333 0.998540 0.511495
v 0.509515 0.356425 -1.271422
v -0.384165 0.451279 -0.360510
v -0.716152 0.616678 0.027005
v -1.379482 0.655773 0.548959
v 0.142037 -0.098363 -1.491668
v 0.202146 0.059548 -1.404794
v -0.487932 0.020336 -0.566794
v -1.361991 0.288705 0.605652
v -1.408820 0.107493 0.677250
v 0.038978 -0.439393 -1.465833
v -0.709124 -0.351577 -0.297117
v -1.294786 0.005513 0.768411
v -1.330124 -0.111489 0.902553
v 0.142363 -1.050587 -1.369890
v -0.691804 -0.582612 0.225412
v -0.932693 -0.319318 1.083674
v 0.458484 -1.336620 -1.036349
v 0.232877 -1.176043 -1.136003
v 0.173468 -1.008602 -0.174326
v -0.323800 -0.633267 0.562024
v -0.648707 -0.362253 1.282015
v -0.382095 -0.258914 1.539037
v 0.744711 -1.180258 -0.587585
v 0.699798 -1.309320 -0.686838
v 0.491935 -0.709788 0.508654
v 0.272463 -0.402522 0.996962
v 0.658436 -0.066267 0.813151
v 0.546625 0.259228 0.957593
v 0.828927 0.203773 0.567391
v 1.314433 -0.113933 -0.225587
v 0.503543 0.531802 1.004257
v 0.388183 0.728512 0.895263
v 0.761639 0.519147 0.377019
v 0.668875 0.692668 0.266348
v 0.935979 0.416448 -0.272223
v 0.450054 0.840878 0.022264
v 0.640809 0.620216 -0.190781
v 0.689592 0.627618 -0.534778
v 0.411820 0.645619 -0.477538
v 0.460817 0.521490 -0.791652
v 0.040576 0.737376 -0.320185
v -0.246137 0.601363 -0.372133
v 0.060346 0.332490 -0.897604
v -0.065089 0.070640 -1.045960
v -0.838196 0.488216 0.070444
v -0.358119 0.047859 -0.654529
v -0.952231 0.131948 0.077600
v -0.510606 -0.241295 -0.652033
v -0.971308 -0.009098 0.182662
v -0.373220 -0.765507 -0.652016
v -0.873308 -0.346851 0.316629
v 0.821648 -0.395971 -0.992545
v 0.995216 -0.967510 -0.726745
v 0.839490 -0.810593 -0.873190
v 0.774954 -0.960493 -1.131328
v 0.694315 -0.820143 -1.224435
v 0.404023 -0.742725 -1.427694
v 0.599330 -0.554970 -1.406095
v 0.487386 -0.286275 -1.296283
v 0.704658 -0.098193 -1.030927
v 0.626909 0.204075 -1.222790
v 0.799219 0.333722 -0.886145
v 0.983220 0.264521 -0.586016
v 0.936787 -0.010858 -0.597566
v 1.235261 -0.046868 -0.551742
v 1.074400 -0.254798 -0.621892
v 1.073648 -0.515570 -0.613484
v -0.736972 -0.520275 0.671453
v -0.030832 -0.946422 -0.309749
v -0.371915 -0.600116 0.449348
v 0.073198 -1.044765 -0.277138
v 0.147520 -0.795092 0.333557
v -0.633225 0.452710 1.086890
v -0.468495 0.077219 1.238788
v -0.064256 0.080116 1.505164
v 0.003888 0.352145 1.299083
v -0.115578 0.442189 1.055383
v 0.078067 0.828519 1.191473
v -0.268469 0.695077 1.101244
v -0.124816 0.913513 0.975761
v -0.395280 0.811268 0.881276
v -0.815926 1.049164 0.810886
v -0.742268 0.559829 0.993052
v -1.004670 0.798923 0.632647
v -1.250448 0.548542 0.789081
v -1.190673 0.191311 0.820032
v -0.927749 0.176123 0.915963
v -1.081237 -0.036552 1.055309
v -0.684066 -0.169167 1.109479
vn -0.0215 -0.9084 0.4176
vn 0.7669 0.0950 0.6347
vn 0.7598 0.2273 0.6091
vn 0.9216 0.1221 0.3684
vn 0.6967 0.7174 -0.0076
vn 0.7450 0.1835 0.6413
vn 0.7825 0.5733 0.2431
vn 0.5810 0.7851 0.2146
vn 0.4917 0.8707 0.0026
vn 0.8861 0.3964 0.2403
vn 0.6689 0.6926 0.2699
vn 0.6443 0.6024 0.4711
vn -0.0226 0.9170 -0.3982
vn 0.2030 0.9573 -0.2060
vn 0.0392 0.9006 -0.4328
vn 0.0794 0.9313 -0.3556
vn 0.0922 0.9105 -0.4032
vn -0.2527 0.9067 -0.3376
vn 0.1865 0.9132 -0.3623
vn -0.0993 0.8699 -0.4832
vn -0.6047 0.5086 -0.6129
vn -0.1943 0.9115 -0.3624
vn -0.6793 0.2518 -0.6894
vn -0.4580 0.5067 -0.7304
vn -0.6639 0.4219 -0.6175
vn -0.5564 0.4937 -0.6683
vn -0.4918 0.7091 -0.5052
vn -0.7696 0.0392 -0.6373
vn -0.7617 0.2594 -0.5937
vn -0.8616 -0.0677 -0.5030
vn -0.7849 -0.3647 -0.5008
vn -0.4884 -0.8641 0.1213
vn -0.6260 -0.7753 -0.0842
vn -0.6372 -0.7544 -0.1580
vn -0.8051 -0.4910 -0.3328
vn -0.8046 -0.3260 -0.4963
vn 0.5050 -0.4155 -0.7566
vn 0.6610 -0.5467 -0.5141
vn 0.1214 -0.7907 -0.6000
vn 0.7570 -0.6510 -0.0557
vn 0.2861 -0.4061 -0.8679
vn 0.4788 -0.0323 -0.8773
vn 0.3886 0.0053 -0.9214
vn 0.5739 -0.6881 -0.4441
vn 0.5032 -0.6581 -0.5601
vn 0.7571 0.0907 0.6470
vn -0.6901 -0.7234 0.0199
vn -0.3987 -0.9085 0.1252
vn -0.0343 -0.9318 0.3612
vn -0.4708 -0.8602 0.1958
vn -0.1224 -0.9113 0.3930
vn 0.1733 -0.8934 0.4145
vn -0.2018 -0.9210 0.3332
vn -0.3838 -0.9126 0.1413
vn 0.5047 -0.6298 0.5905
vn -0.2357 -0.9415 0.2409
vn 0.0632 -0.8836 0.4639
vn 0.0012 -0.9282 0.3720
vn -0.5482 0.0956 0.8309
vn 0.0392 0.9434 0.3293
vn -0.7294 0.6552 0.1966
vn -0.7245 0.5223 0.4499
vn -0.7410 -0.1053 0.6633
vn -0.3844 -0.0656 0.9208
vn -0.6515 0.3574 0.6691
vn -0.2881 0.4302 0.8555
vn -0.7060 0.4227 0.5682
vn -0.5338 -0.3227 0.7817
vn -0.6044 0.4229 0.6751
vn -0.4232 -0.3213 0.8471
vn 0.5932 -0.5339 0.6026
vn -0.0833 -0.9370 0.3394
vn 0.2527 -0.8353 0.4883
vn 0.5653 -0.5813 0.5852
vn 0.3893 -0.6582 0.6444
vn 0.3609 -0.7270 0.5841
vn 0.0945 -0.7937 0.6009
vn 0.7981 -0.2175 0.5620
vn 0.7307 -0.1254 0.6710
vn 0.5864 -0.3255 0.7418
vn 0.7023 -0.4117 0.5807
vn 0.4045 -0.7561 0.5145
vn 0.6073 -0.4035 0.6844
vn 0.8156 0.0403 0.5772
vn 0.6974 0.0728 0.7129
vn 0.8535 -0.0036 0.5212
vn 0.7852 0.3621 0.5022
vn 0.6747 0.5461 0.4966
vn 0.6357 0.6734 0.3774
vn 0.8321 0.4450 0.3311
vn 0.8534 0.0487 0.5189
vn 0.8747 0.3747 0.3075
vn 0.6473 -0.0281 0.7617
vn 0.7483 0.5915 0.3003
vn 0.3346 0.8955 -0.2933
vn 0.7052 0.1139 0.6998
vn 0.4930 0.8695 -0.0305
vn 0.4605 -0.7120 0.5302
vn 0.6551 0.7201 0.2287
vn 0.8000 0.5099 0.3161
vn 0.4354 0.8972 0.0736
vn 0.6843 0.7290 0.0152
vn 0.4099 0.9085 -0.0810
vn 0.2110 0.9393 -0.2706
vn 0.1440 0.9449 -0.2940
vn 0.6875 0.7180 0.1090
vn -0.0517 0.8837 -0.4652
vn -0.0580 0.8367 -0.5445
vn 0.5041 0.8560 -0.1144
vn 0.0359 0.9560 -0.2912
vn -0.0993 0.9059 -0.4117
vn -0.3333 0.6780 -0.6551
vn -0.4613 0.6780 -0.5723
vn -0.7432 0.3713 -0.5566
vn -0.5462 0.4475 -0.7081
vn -0.3865 0.8254 -0.4116
vn -0.3059 0.6755 -0.6710
vn -0.7991 0.1037 -0.5922
vn -0.2589 0.7883 -0.5582
vn -0.7111 0.4845 -0.5095
vn -0.6683 0.5374 -0.5143
vn -0.4793 0.5039 -0.7186
vn -0.8821 -0.0844 -0.4634
vn -0.5772 0.2902 -0.7633
vn -0.7868 0.2066 -0.5816
vn -0.7851 -0.3611 -0.5032
vn -0.8790 -0.3246 -0.3492
vn -0.7807 -0.1700 -0.6014
vn -0.6195 0.4382 -0.6513
vn -0.7965 -0.5675 -0.2087
vn -0.8298 -0.3710 -0.4169
vn -0.6860 -0.7117 -0.1515
vn 0.7701 -0.1491 -0.6203
vn 0.8320 -0.0053 -0.5548
vn 0.5498 -0.2091 -0.8087
vn 0.9731 -0.0241 -0.2293
vn 0.8080 0.0768 -0.5841
vn 0.6563 0.2475 -0.7128
vn 0.6659 0.5027 -0.5512
vn 0.5203 0.1389 -0.8426
vn 0.9789 -0.1684 -0.1155
vn 0.5149 0.3677 -0.7744
vn 0.7165 -0.0245 -0.6971
vn 0.8678 -0.0894 -0.4888
vn 0.0481 -0.5858 -0.8090
vn 0.9544 -0.2915 -0.0647
vn 0.1685 -0.4043 -0.8990
vn 0.4410 -0.7086 -0.5508
vn 0.1765 0.3881 -0.9046
vn 0.3239 -0.2314 -0.9174
vn 0.4079 -0.4912 -0.7696
vn 0.4480 -0.4692 -0.7610
vn 0.5230 -0.2122 -0.8255
vn 0.4060 -0.5076 -0.7599
vn 0.5683 0.2199 -0.7929
vn 0.9088 -0.0304 -0.4162
vn -0.0948 -0.7400 -0.6659
vn 0.8923 -0.0448 -0.4493
vn 0.2563 -0.2601 -0.9309
vn 0.0013 0.0417 -0.9991
vn 0.4592 0.0544 -0.8867
vn 0.4468 -0.0442 -0.8935
vn -0.3574 -0.9181 0.1715
vn 0.4882 -0.1708 -0.8559
vn -0.4286 -0.8997 0.0823
vn 0.0725 -0.8947 0.4407
vn -0.5516 -0.8319 0.0604
vn -0.5900 -0.8066 0.0359
vn -0.5345 -0.8365 -0.1205
vn -0.1444 -0.8809 0.4507
vn -0.5892 -0.8079 0.0139
vn -0.0380 -0.2005 0.9790
vn 0.0960 -0.8760 0.4726
vn 0.0823 -0.8788 0.4701
vn -0.1943 -0.9437 0.2675
vn -0.5758 0.0766 0.8140
vn -0.4568 0.6504 0.6069
vn -0.0098 0.4175 0.9086
vn -0.4511 -0.2088 0.8677
vn -0.5144 0.2643 0.8158
vn -0.7278 0.3561 0.5861
vn -0.4689 0.5115 0.7200
vn -0.7986 0.3145 0.5131
vn -0.3224 -0.1253 0.9383
vn -0.1577 0.6211 0.7677
vn -0.3362 0.2614 0.9048
vn -0.7806 0.1805 0.5984
vn -0.0930 0.2316 0.9684
vn -0.6159 0.6558 0.4366
vn -0.7334 -0.0676 0.6765
vn -0.7907 0.1055 0.6031
vn -0.7564 0.1420 0.6385
vn -0.1277 0.7811 0.6112
vn -0.3898 0.6089 0.6909
vn -0.5026 0.4351 0.7471
vn -0.5699 0.0925 0.8165
vn -0.2283 -0.0223 0.9733
vn -0.3305 0.7062 0.6261
vn -0.5154 0.6978 0.4974
vn -0.1310 0.0467 0.9903
vt 1.000000 1.002462
vt 0.958270 0.773475
vt 1.000000 0.637822
vt 0.901165 0.875000
vt 0.856170 1.000000
vt 0.831773 1.007922
vt 0.918168 0.625000
vt 0.877884 0.500000
vt 0.909369 0.500000
vt 0.792328 0.875000
vt 0.833333 0.811222
vt 0.769854 1.000991
vt 0.749561 1.000000
vt 0.752106 0.772625
vt 0.810186 0.625000
vt 0.773510 0.500000
vt 0.831751 0.500000
vt 0.729167 0.750000
vt 0.700162 1.004505
vt 0.689005 0.750000
vt 0.728092 0.625000
vt 0.698759 0.501010
vt 0.666667 0.776659
vt 0.649666 0.502168
vt 0.730829 0.500000
vt 0.599435 1.000000
vt 0.576384 0.833305
vt 0.604167 0.875000
vt 0.625000 0.500048
vt 0.596945 0.750000
vt 0.583333 0.625000
vt 0.526254 0.713836
vt 0.559177 0.499630
vt 0.541205 0.875000
vt 0.591672 0.500000
vt 0.519666 1.000000
vt 0.478577 1.012276
vt 0.520833 0.500000
vt 0.481784 0.690384
vt 0.458333 0.750000
vt 0.437499 0.497141
vt 0.444267 0.875000
vt 0.417762 0.754571
vt 0.428215 1.000000
vt 0.409849 0.625000
vt 0.393638 0.500000
vt 0.388377 0.884210
vt 0.375000 0.625000
vt 0.354167 0.816264
vt 0.330396 0.821115
vt 0.337285 1.000000
vt 0.318024 0.500000
vt 0.354167 0.500000
vt 0.287014 0.817968
vt 0.296073 0.636678
vt 0.273283 1.000000
vt 0.247297 0.745472
vt 0.291667 0.500000
vt 0.210027 0.868324
vt 0.163374 0.999213
vt 0.201363 0.629021
vt 0.229167 0.495210
vt 0.257403 0.500000
vt 0.212300 1.000000
vt 0.162642 0.684428
vt 0.201722 0.500000
vt 0.331754 0.339725
vt 0.433403 0.393409
vt 0.364291 0.459237
vt 0.223307 0.482848
vt 0.251309 0.423225
vt 0.288533 0.479675
vt 0.121310 0.449156
vt 0.166734 0.354778
vt 0.160000 0.465885
vt 0.086077 0.413923
vt 0.018984 0.216472
vt 0.073872 0.250000
vt 0.024547 0.304288
vt 0.086077 0.086077
vt 0.157199 0.167937
vt 0.046319 0.125835
vt 0.278318 0.017588
vt 0.250000 0.073872
vt 0.220000 0.018038
vt 0.386974 0.059128
vt 0.338064 0.097468
vt 0.419204 0.094204
vt 0.482337 0.278600
vt 0.457939 0.369654
vt 0.124803 0.820361
vt 0.104167 0.875000
vt 0.104167 0.686892
vt 0.091577 1.000000
vt 0.083333 0.867900
vt 0.161670 0.500000
vt 0.128755 0.625000
vt 0.118314 0.500000
vt 0.062500 0.991810
vt 0.039600 0.772805
vt 0.071462 0.675895
vt 0.050337 0.500000
vt 0.083333 0.500000
vt 0.041667 1.000000
vt 0.018537 0.998087
vt 0.008204 0.637822
vt 0.002185 0.500000
vt 0.751461 0.251673
vt 0.773923 0.373053
vt 0.897807 0.414371
vt 0.860462 0.279598
vt 0.902532 0.338064
vt 0.639538 0.279598
vt 0.597468 0.338064
vt 0.958457 0.367721
vt 0.939925 0.112079
vt 0.902532 0.161936
vt 0.970229 0.176213
vt 0.820128 0.159559
vt 0.913923 0.086077
vt 0.878790 0.050944
vt 0.716590 0.018952
vt 0.750000 0.073872
vt 0.780000 0.018038
vt 0.605724 0.066430
vt 0.661936 0.097468
vt 0.660000 0.034115
vt 0.536247 0.152046
vt 0.597468 0.161936
vt 0.564115 0.108038
vt 0.526011 0.189982
vt 0.573872 0.250000
vt 0.512856 0.239340
vt 0.547421 0.375267
vt 0.528628 0.319520
vt 0.920583 1.000077
vt 0.937500 0.660511
vt 0.980842 0.500000
vt 0.973241 1.000000
vt 0.906323 0.750000
vt 0.854167 0.709574
vt 0.833333 0.625000
vt 0.770833 0.625000
vt 0.794979 0.750000
vt 0.666667 0.999937
vt 0.687500 0.875000
vt 0.625000 0.750000
vt 0.634697 0.816818
vt 0.631471 0.996028
vt 0.476799 0.500000
vt 0.395833 1.000000
vt 0.375000 1.000000
vt 0.270833 0.625000
vt 0.312500 1.000000
vt 0.129111 0.294090
vt 0.139538 0.220402
vt 0.250000 0.250000
vt 0.220402 0.360462
vt 0.114772 0.068283
vt 0.251736 0.139538
vt 0.402532 0.161936
vt 0.360462 0.220402
vt 0.426128 0.250000
vt 0.360462 0.279598
vt 0.190000 0.473923
vt 0.045786 0.373632
vt 0.034115 0.160000
vt 0.146629 0.037698
vt 0.457846 0.130000
vt 0.471011 0.179132
vt 0.489830 0.249367
vt 0.125000 1.000000
vt 0.985332 0.221060
vt 0.860462 0.220402
vt 0.673469 0.394233
vt 0.697415 0.152810
vt 0.677515 0.470578
vt 0.776712 0.482374
vt 0.877172 0.449253
vt 0.980929 0.283854
vt 0.835229 0.032837
vt 0.518038 0.280000
vt 0.593125 0.420971
vt 0.630000 0.457846
s 0
usemtl Boulder_04_Tall_Mat
f 18/1/1 67/2/1 17/3/1
f 19/4/2 22/5/2 28/6/2
f 21/7/3 117/8/3 15/9/3
f 28/6/4 72/10/4 24/11/4
f 27/12/5 32/13/5 29/14/5
f 70/15/6 26/16/6 1/17/6
f 75/18/7 31/19/7 76/20/7
f 74/21/8 76/20/8 30/22/8
f 29/14/9 75/18/9 74/21/9
f 32/13/10 31/19/10 29/14/10
f 30/22/11 33/23/11 2/24/11
f 120/25/12 74/21/12 30/22/12
f 4/26/13 81/27/13 80/28/13
f 34/29/14 37/30/14 38/31/14
f 81/27/15 83/32/15 39/33/15
f 82/34/16 83/32/16 81/27/16
f 38/31/17 39/33/17 35/35/17
f 82/34/18 6/36/18 43/37/18
f 39/33/19 83/32/19 40/38/19
f 41/39/20 84/40/20 42/41/20
f 84/40/21 85/42/21 44/43/21
f 85/42/22 8/44/22 44/43/22
f 44/43/23 45/45/23 42/41/23
f 42/41/24 45/45/24 7/46/24
f 86/47/25 87/48/25 45/45/25
f 87/48/26 88/49/26 49/50/26
f 10/51/27 49/50/27 88/49/27
f 49/50/28 9/52/28 46/53/28
f 49/50/29 90/54/29 89/55/29
f 90/54/30 11/56/30 53/57/30
f 89/55/31 50/58/31 9/52/31
f 92/59/32 60/60/32 93/61/32
f 53/57/33 54/62/33 51/63/33
f 92/59/34 56/64/34 60/60/34
f 60/60/35 57/65/35 93/61/35
f 54/62/36 93/61/36 55/66/36
f 109/67/37 22/68/37 23/69/37
f 18/70/38 95/71/38 16/72/38
f 14/73/39 97/74/39 66/75/39
f 59/76/40 97/74/40 14/73/40
f 11/77/41 99/78/41 56/79/41
f 47/80/42 101/81/42 10/82/42
f 6/83/43 103/84/43 43/85/43
f 4/86/44 104/87/44 6/83/44
f 36/88/45 104/87/45 4/86/45
f 22/68/46 27/89/46 28/90/46
f 111/91/47 113/92/47 112/93/47
f 60/60/48 111/91/48 57/65/48
f 113/92/49 14/94/49 61/95/49
f 12/96/50 110/97/50 58/98/50
f 66/99/51 114/100/51 62/101/51
f 62/101/52 63/102/52 13/103/52
f 61/95/53 66/99/53 62/101/53
f 14/94/54 66/99/54 61/95/54
f 66/99/55 65/104/55 114/100/55
f 65/104/56 18/105/56 114/100/56
f 18/105/57 17/106/57 114/100/57
f 63/102/58 17/106/58 64/107/58
f 115/108/59 116/109/59 117/110/59
f 119/111/60 115/108/60 118/112/60
f 115/108/61 129/113/61 130/114/61
f 1/115/62 118/112/62 117/110/62
f 2/116/63 122/117/63 30/118/63
f 123/119/64 34/120/64 35/121/64
f 5/122/65 124/123/65 40/124/65
f 7/125/66 126/126/66 42/127/66
f 9/128/67 127/129/67 46/130/67
f 50/131/68 127/129/68 9/128/68
f 128/132/69 50/131/69 51/133/69
f 12/134/70 130/114/70 55/135/70
f 67/2/71 23/136/71 68/137/71
f 64/138/72 17/3/72 67/2/72
f 18/1/73 16/139/73 67/2/73
f 67/2/74 16/139/74 23/136/74
f 15/9/75 64/138/75 67/2/75 68/137/75
f 68/137/76 20/140/76 21/7/76
f 15/9/77 68/137/77 21/7/77
f 69/141/78 20/140/78 19/4/78 28/6/78
f 21/7/79 20/140/79 69/141/79
f 1/17/80 117/8/80 69/141/80 25/142/80
f 23/136/81 22/5/81 19/4/81
f 69/141/82 28/6/82 24/11/82
f 69/141/83 24/11/83 25/142/83
f 73/143/84 70/15/84 71/144/84 29/14/84
f 117/8/85 21/7/85 69/141/85
f 27/12/86 29/14/86 71/144/86 72/10/86
f 71/144/87 70/15/87 25/142/87 24/11/87
f 1/17/88 25/142/88 70/15/88
f 120/25/89 26/16/89 73/143/89 29/14/89
f 24/11/90 72/10/90 71/144/90
f 28/6/91 27/12/91 72/10/91
f 3/145/92 33/23/92 76/20/92 77/146/92
f 26/16/93 70/15/93 73/143/93
f 74/21/94 75/18/94 76/20/94
f 31/19/95 77/146/95 76/20/95
f 29/14/96 74/21/96 120/25/96
f 29/14/97 31/19/97 75/18/97
f 19/4/98 20/140/98 68/137/98 23/136/98
f 77/146/99 31/19/99 3/145/99
f 78/147/100 34/29/100 2/24/100 79/148/100
f 30/22/101 76/20/101 33/23/101
f 80/28/102 37/30/102 78/147/102 79/148/102
f 78/147/103 37/30/103 34/29/103
f 36/149/104 79/148/104 33/23/104 3/145/104
f 33/23/105 79/148/105 2/24/105
f 80/28/106 79/148/106 36/149/106 4/26/106
f 81/27/107 39/33/107 38/31/107 37/30/107
f 80/28/108 81/27/108 37/30/108
f 35/35/109 34/29/109 38/31/109
f 82/34/110 81/27/110 4/26/110 6/36/110
f 41/39/111 83/32/111 82/34/111 43/37/111
f 5/150/112 40/38/112 83/32/112 41/39/112
f 84/40/113 41/39/113 43/37/113 85/42/113
f 86/47/114 44/43/114 8/44/114 48/151/114
f 84/40/115 44/43/115 42/41/115
f 43/37/116 8/44/116 85/42/116
f 41/39/117 42/41/117 5/150/117
f 87/48/118 86/47/118 88/49/118
f 45/45/119 44/43/119 86/47/119
f 88/49/120 86/47/120 47/152/120 10/51/120
f 48/151/121 47/152/121 86/47/121
f 46/53/122 7/46/122 87/48/122 49/50/122
f 53/57/123 91/153/123 89/55/123 90/54/123
f 7/46/124 45/45/124 87/48/124
f 90/54/125 49/50/125 52/154/125 11/56/125
f 9/52/126 49/50/126 89/55/126
f 49/50/127 10/51/127 52/154/127
f 91/153/128 51/63/128 50/58/128 89/55/128
f 51/63/129 91/153/129 53/57/129
f 93/61/130 54/62/130 53/57/130 92/59/130
f 92/59/131 53/57/131 11/56/131 56/64/131
f 12/96/132 55/66/132 93/61/132 57/65/132
f 98/155/133 99/78/133 100/156/133 94/157/133
f 95/71/134 94/157/134 109/67/134
f 96/158/135 94/157/135 95/71/135
f 97/74/136 94/157/136 96/158/136
f 98/155/137 94/157/137 97/74/137
f 101/81/138 48/159/138 102/160/138 94/157/138
f 101/81/139 94/157/139 100/156/139
f 102/160/140 104/87/140 36/88/140 94/157/140
f 36/88/141 105/161/141 106/162/141 94/157/141
f 106/162/142 107/163/142 108/164/142 94/157/142
f 108/164/143 22/68/143 109/67/143 94/157/143
f 109/67/144 23/69/144 16/72/144 95/71/144
f 95/71/145 18/70/145 65/165/145 96/158/145
f 65/165/146 66/75/146 97/74/146 96/158/146
f 59/76/147 60/166/147 98/155/147 97/74/147
f 60/166/148 56/79/148 98/155/148
f 11/77/149 52/167/149 101/81/149 100/156/149
f 11/77/150 100/156/150 99/78/150
f 99/78/151 98/155/151 56/79/151
f 10/82/152 101/81/152 52/167/152
f 8/168/153 43/85/153 103/84/153 102/160/153
f 8/168/154 102/160/154 48/159/154
f 48/159/155 101/81/155 47/80/155
f 6/83/156 102/160/156 103/84/156
f 105/161/157 36/88/157 3/169/157 31/170/157
f 104/87/158 102/160/158 6/83/158
f 31/170/159 32/171/159 107/163/159 106/162/159
f 31/170/160 106/162/160 105/161/160
f 32/171/161 27/89/161 107/163/161
f 27/89/162 108/164/162 107/163/162
f 14/94/163 113/92/163 111/91/163 59/172/163
f 22/68/164 108/164/164 27/89/164
f 57/65/165 111/91/165 110/97/165
f 110/97/166 111/91/166 112/93/166
f 57/65/167 110/97/167 12/96/167
f 60/60/168 59/172/168 111/91/168
f 62/101/169 13/103/169 58/98/169 112/93/169
f 112/93/170 113/92/170 61/95/170
f 112/93/171 61/95/171 62/101/171
f 119/111/172 120/173/172 121/174/172 115/108/172
f 58/98/173 110/97/173 112/93/173
f 63/102/174 114/100/174 17/106/174
f 63/102/175 62/101/175 114/100/175
f 116/109/176 115/108/176 131/175/176
f 121/174/177 122/117/177 123/119/177 115/108/177
f 123/119/178 124/123/178 125/176/178 115/108/178
f 125/176/179 127/129/179 50/131/179 115/108/179
f 50/131/180 128/132/180 129/113/180 115/108/180
f 63/177/181 64/178/181 116/109/181 131/175/181
f 64/178/182 15/179/182 117/110/182 116/109/182
f 118/112/183 1/115/183 26/180/183 119/111/183
f 122/117/184 2/116/184 34/120/184 123/119/184
f 118/112/185 115/108/185 117/110/185
f 30/118/186 121/174/186 120/173/186
f 120/173/187 119/111/187 26/180/187
f 39/181/188 40/124/188 124/123/188 123/119/188
f 122/117/189 121/174/189 30/118/189
f 39/181/190 123/119/190 35/121/190
f 5/122/191 125/176/191 124/123/191
f 5/122/192 42/127/192 126/126/192 125/176/192
f 7/125/193 125/176/193 126/126/193
f 7/125/194 46/130/194 127/129/194 125/176/194
f 128/132/195 54/182/195 55/135/195 129/113/195
f 54/182/196 128/132/196 51/133/196
f 130/114/197 12/134/197 58/183/197 115/108/197
f 58/183/198 13/184/198 63/177/198 131/175/198
f 130/114/199 129/113/199 55/135/199
f 131/175/200 115/108/200 58/183/200
