# Blender 5.1.1
# www.blender.org
mtllib Boulder_01_Round.mtl
o Boulder_01_Round
v -0.216286 0.585978 -0.838115
v -0.779502 -0.779775 -0.469565
v -0.304365 1.136075 0.121947
v 0.979409 0.857657 -0.504689
v -1.038452 -0.607192 0.793734
v -0.277766 0.508139 1.243588
v 0.965915 -0.340826 0.385347
v 0.495945 -0.329283 -1.203031
v -0.028048 0.985141 -0.614864
v -1.261078 0.375547 -0.038577
v -1.337529 0.590668 0.388102
v 0.988890 -0.350039 -0.871066
v 1.393201 0.454226 -0.192398
v 1.380485 0.054945 -0.461944
v 0.737592 -0.598408 -0.711492
v 0.597190 -0.864535 -0.592110
v 0.456265 -0.988723 -0.275081
v -1.259345 -0.298261 0.585012
v -1.393201 0.069614 0.198596
v -0.818139 -0.974519 0.209319
v -0.877671 -0.754134 0.487958
v -0.754648 0.921036 0.747661
v -0.513799 1.084845 0.549113
v -1.364750 0.334157 0.699422
v -0.846359 0.542624 1.050467
v 0.880822 1.017280 -0.133130
v 0.457435 0.958957 0.522159
v 0.133902 -1.161552 -0.099880
v 0.086928 -1.144664 0.161236
v 1.305027 0.059087 0.189840
v 0.503812 -1.015050 0.271794
v 0.512376 -0.563444 0.758575
v -0.503787 -0.878970 0.660881
v 0.242004 0.074494 1.105819
v 0.885565 0.277302 0.697829
v 0.847465 -0.080100 0.766021
v 0.602040 0.685972 0.816408
v -0.052972 -0.358334 1.102769
v -0.671310 0.091420 1.315824
v -0.020074 -0.985009 0.692760
v 0.946869 -0.663633 0.251415
v 0.843129 0.588982 0.532859
v -0.109986 1.030020 0.773064
v -1.119118 -0.074093 1.090079
v -0.214310 -1.096803 -0.299192
v 0.928239 -0.701771 -0.140525
v 1.140155 -0.350101 -0.275064
v 0.143150 1.161552 0.188116
v -0.056663 -0.725022 -0.933321
v 1.100174 0.327684 -0.940918
v 0.366393 1.069286 -0.470243
v -0.943155 0.951855 0.345950
v -0.853880 0.593544 -0.536684
v -0.661722 -0.044721 -0.955644
v -1.185701 -0.303484 -0.342444
v 0.701324 0.641002 -1.022855
v 0.450915 0.134826 -1.315824
v -0.263804 -0.513128 -1.061542
vn -0.3831 0.4235 -0.8209
vn -0.3436 0.5766 -0.7413
vn 0.2946 0.9039 -0.3101
vn 0.2232 -0.0419 0.9739
vn 0.6854 -0.4835 0.5444
vn 0.4087 -0.2966 0.8631
vn 0.5075 0.1090 0.8547
vn 0.7629 -0.3977 0.5098
vn 0.7783 0.0366 0.6269
vn 0.7649 0.3796 0.5205
vn 0.5087 0.1050 0.8545
vn 0.3972 0.1910 0.8976
vn 0.4182 -0.2911 0.8604
vn 0.2186 -0.1558 0.9633
vn -0.1187 -0.5536 0.8243
vn -0.1016 -0.5911 0.8002
vn -0.1736 -0.5455 0.8199
vn 0.3046 -0.5102 0.8043
vn 0.4475 -0.6595 0.6040
vn -0.2229 -0.9451 0.2390
vn 0.2032 -0.9257 0.3190
vn 0.2683 -0.9570 0.1102
vn 0.6756 -0.5464 0.4950
vn 0.3391 -0.3775 0.8617
vn 0.5873 -0.7571 -0.2861
vn 0.5024 -0.8626 0.0601
vn 0.8580 -0.5135 0.0092
vn 0.9536 -0.1616 0.2539
vn 0.7816 -0.6166 0.0944
vn 0.9874 -0.1091 0.1150
vn 0.7932 0.3226 0.5164
vn 0.7703 0.3771 0.5142
vn 0.7311 0.6754 -0.0962
vn 0.6937 0.5873 0.4170
vn 0.1707 0.9793 0.1086
vn 0.3958 0.5415 0.7417
vn 0.1525 0.7608 0.6308
vn 0.0538 0.9880 0.1449
vn -0.1633 0.8491 0.5024
vn -0.1443 0.6878 0.7114
vn -0.2714 0.4075 0.8719
vn -0.6160 0.3187 0.7204
vn -0.5125 0.2788 0.8122
vn -0.2358 -0.4992 0.8338
vn -0.9151 -0.3327 0.2277
vn -0.9569 -0.0471 0.2866
vn -0.8531 -0.3461 0.3905
vn -0.3985 -0.8908 0.2185
vn -0.4066 -0.8718 -0.2732
vn -0.4702 -0.7383 0.4835
vn -0.1598 -0.9374 0.3096
vn -0.1838 -0.9828 0.0181
vn -0.1981 -0.9798 0.0277
vn 0.5361 -0.8393 -0.0905
vn 0.5024 -0.8614 0.0747
vn 0.7534 -0.5554 -0.3521
vn 0.7368 -0.5781 -0.3507
vn 0.6395 -0.7514 -0.1624
vn 0.6516 0.6885 0.3185
vn 0.6108 0.6498 0.4525
vn 0.2982 0.9143 0.2740
vn -0.1339 0.7864 0.6030
vn 0.1554 0.9842 -0.0852
vn -0.2116 0.6414 0.7375
vn -0.6032 0.5823 0.5450
vn -0.3933 0.8841 0.2524
vn -0.6143 0.7107 0.3428
vn -0.6350 0.6225 0.4574
vn -0.9944 0.1061 0.0005
vn -0.7734 -0.6249 -0.1064
vn -0.6746 -0.6423 0.3639
vn -0.9115 -0.4053 -0.0701
vn -0.8518 -0.5198 -0.0647
vn -0.7706 -0.5996 -0.2159
vn 0.1530 -0.8297 -0.5369
vn 0.1569 -0.8685 -0.4702
vn -0.0068 -0.9301 -0.3673
vn -0.2840 -0.7947 -0.5365
vn 0.1927 -0.7220 -0.6645
vn 0.5722 -0.5675 -0.5920
vn 0.3581 -0.7335 -0.5777
vn 0.8795 -0.4121 0.2378
vn 0.7983 -0.5672 -0.2027
vn 0.7964 -0.1899 -0.5742
vn 0.8913 0.2339 -0.3885
vn 0.7767 0.4963 -0.3879
vn 0.1614 0.5957 -0.7868
vn -0.1171 0.9634 -0.2412
vn -0.0341 0.9881 -0.1500
vn -0.3635 0.8764 -0.3159
vn -0.2850 0.9582 -0.0248
vn -0.4257 0.8226 -0.3770
vn -0.7217 0.6128 -0.3218
vn -0.6327 0.6400 -0.4360
vn -0.9425 0.1985 -0.2690
vn -0.7962 0.1457 -0.5872
vn -0.9110 0.0799 -0.4045
vn -0.7840 0.1790 -0.5944
vn -0.6316 -0.3547 -0.6894
vn 0.5802 0.5924 -0.5590
vn 0.5305 -0.1726 -0.8299
vn 0.1605 0.8770 -0.4528
vn 0.4100 0.2964 -0.8626
vn -0.1873 0.5598 -0.8071
vn 0.5483 -0.1469 -0.8233
vn -0.2072 0.5502 -0.8090
vn -0.6148 -0.3641 -0.6996
vn -0.3424 -0.7083 -0.6173
vn -0.0271 -0.5368 -0.8433
vn -0.3401 0.3989 -0.8516
vn -0.3017 -0.0410 -0.9525
vn -0.1198 -0.2454 -0.9620
vt 0.909091 0.000000
vt 0.949824 0.071175
vt 0.886364 0.039365
vt 0.727273 0.000000
vt 0.743932 0.049876
vt 0.690705 0.063339
vt 0.455883 0.155145
vt 0.521825 0.123528
vt 0.494212 0.196826
vt 0.691104 0.314515
vt 0.775151 0.318412
vt 0.771850 0.392132
vt 0.397195 0.373046
vt 0.454943 0.394339
vt 0.433703 0.436281
vt 0.477273 0.433017
vt 0.485780 0.355042
vt 0.409091 0.314921
vt 0.504606 0.304162
vt 0.569249 0.315166
vt 0.576738 0.369105
vt 0.652953 0.394621
vt 0.822018 0.393651
vt 0.821204 0.467148
vt 0.887736 0.278203
vt 0.886364 0.354286
vt 0.042670 0.319745
vt 0.087760 0.354286
vt 0.045455 0.393651
vt 0.102590 0.441684
vt 0.158205 0.355823
vt 0.133264 0.312759
vt 0.160462 0.277008
vt 0.205433 0.355823
vt 0.320512 0.373046
vt 0.263615 0.434037
vt 0.277504 0.354286
vt 0.264115 0.300003
vt 0.319297 0.277578
vt 0.366112 0.240479
vt 0.423097 0.248915
vt 0.647760 0.137722
vt 0.636364 0.236191
vt 0.575179 0.250404
vt 0.666905 0.183292
vt 0.701769 0.207303
vt 0.737882 0.254566
vt 0.793983 0.199375
vt 0.817427 0.272150
vt 0.851078 0.159067
vt 0.867721 0.229117
vt 0.022727 0.275556
vt 0.000000 0.314921
vt 0.089283 0.159255
vt 0.131685 0.234457
vt 0.052876 0.249045
vt 0.226058 0.234086
vt 0.201540 0.270348
vt 0.258601 0.211723
vt 0.298865 0.194702
vt 0.579796 0.176710
vt 0.723382 0.149295
vt 0.772727 0.157461
vt 0.925772 0.265084
vt 0.953087 0.233664
vt 0.926482 0.141392
vt 0.999548 0.159767
vt 0.179372 0.161699
vt 0.242329 0.131384
vt 0.369706 0.167973
vt 0.539751 0.079047
vt 0.614179 0.137722
vt 0.790426 0.109386
vt 0.845803 0.109357
vt 0.386364 0.118096
vt 0.446387 0.158804
vt 0.331762 0.102252
vt 0.402759 0.078731
vt 0.295455 0.118096
vt 0.375370 0.028552
vt 0.146979 0.070864
vt 0.173528 0.118096
vt 0.184195 0.004115
vt 0.227273 0.078731
s 0
usemtl Boulder_01_Round_Mat
f 1/1/1 54/2/1 53/3/1
f 1/4/2 53/5/2 9/6/2
f 4/7/3 51/8/3 26/9/3
f 6/10/4 39/11/4 34/12/4
f 7/13/5 36/14/5 32/15/5
f 32/15/6 36/14/6 34/16/6
f 36/14/7 35/17/7 34/16/7
f 7/13/8 30/18/8 36/14/8
f 30/18/9 35/17/9 36/14/9
f 42/19/10 37/20/10 35/17/10
f 35/21/11 37/20/11 34/22/11
f 37/20/12 6/10/12 34/22/12
f 34/12/13 38/23/13 32/24/13
f 34/12/14 39/11/14 38/23/14
f 39/11/15 5/25/15 38/23/15
f 5/25/16 33/26/16 38/23/16
f 33/27/17 40/28/17 38/29/17
f 38/29/18 40/28/18 32/30/18
f 32/30/19 40/28/19 31/31/19
f 33/27/20 29/32/20 40/28/20
f 40/28/21 29/32/21 31/31/21
f 29/32/22 28/33/22 31/31/22
f 31/34/23 7/35/23 32/36/23
f 31/34/24 41/37/24 7/35/24
f 31/34/25 28/33/25 41/37/25
f 28/33/26 46/38/26 41/37/26
f 46/38/27 47/39/27 41/37/27
f 41/37/28 47/39/28 7/35/28
f 14/40/29 30/18/29 7/35/29
f 14/40/30 13/41/30 30/18/30
f 13/41/31 35/17/31 30/18/31
f 13/41/32 42/19/32 35/17/32
f 4/7/33 26/9/33 13/41/33
f 26/9/34 42/19/34 13/41/34
f 3/42/35 43/43/35 27/44/35
f 43/43/36 6/10/36 27/44/36
f 27/44/37 6/10/37 37/20/37
f 3/42/38 23/45/38 43/43/38
f 23/45/39 22/46/39 43/43/39
f 43/43/40 22/46/40 6/10/40
f 25/47/41 39/11/41 6/10/41
f 24/48/42 44/49/42 25/47/42
f 25/47/43 44/49/43 39/11/43
f 44/49/44 5/25/44 39/11/44
f 24/48/45 19/50/45 44/49/45
f 19/50/46 18/51/46 44/49/46
f 18/51/47 5/25/47 44/49/47
f 21/52/48 33/27/48 5/53/48
f 2/54/49 45/55/49 20/56/49
f 21/52/50 20/56/50 33/27/50
f 20/56/51 29/32/51 33/27/51
f 45/55/52 29/32/52 20/56/52
f 45/55/53 28/33/53 29/32/53
f 16/57/54 46/38/54 17/58/54
f 17/58/55 46/38/55 28/33/55
f 16/57/56 15/59/56 46/38/56
f 15/59/57 47/39/57 46/38/57
f 12/60/58 47/39/58 15/59/58
f 42/19/59 27/44/59 37/20/59
f 42/19/60 26/9/60 27/44/60
f 26/9/61 48/61/61 27/44/61
f 48/61/62 3/42/62 27/44/62
f 26/9/63 51/8/63 48/61/63
f 22/46/64 25/47/64 6/10/64
f 25/47/65 22/46/65 24/48/65
f 23/45/66 52/62/66 22/46/66
f 52/62/67 11/63/67 22/46/67
f 22/46/68 11/63/68 24/48/68
f 11/63/69 19/50/69 24/48/69
f 18/51/70 21/64/70 5/25/70
f 18/51/71 20/65/71 21/64/71
f 19/50/72 55/66/72 18/51/72
f 18/51/73 55/66/73 20/65/73
f 20/65/74 55/66/74 2/67/74
f 45/55/75 17/58/75 28/33/75
f 45/55/76 49/68/76 17/58/76
f 49/68/77 16/57/77 17/58/77
f 45/55/78 2/54/78 49/68/78
f 49/68/79 8/69/79 16/57/79
f 16/57/80 8/69/80 15/59/80
f 8/69/81 12/60/81 15/59/81
f 47/39/82 14/40/82 7/35/82
f 47/39/83 12/60/83 14/40/83
f 12/60/84 50/70/84 14/40/84
f 14/40/85 50/70/85 13/41/85
f 50/70/86 4/7/86 13/41/86
f 9/71/87 51/8/87 4/7/87
f 9/71/88 3/72/88 51/8/88
f 3/72/89 48/61/89 51/8/89
f 9/6/90 52/62/90 3/42/90
f 3/42/91 52/62/91 23/45/91
f 9/6/92 53/5/92 52/62/92
f 53/5/93 10/73/93 52/62/93
f 52/62/94 10/73/94 11/63/94
f 10/73/95 19/50/95 11/63/95
f 53/3/96 54/2/96 10/74/96
f 10/74/97 55/66/97 19/50/97
f 54/2/98 55/66/98 10/74/98
f 54/2/99 2/67/99 55/66/99
f 50/70/100 56/75/100 4/76/100
f 12/60/101 57/77/101 50/70/101
f 56/75/102 9/78/102 4/76/102
f 50/70/103 57/77/103 56/75/103
f 57/77/104 9/78/104 56/75/104
f 12/60/105 8/79/105 57/77/105
f 57/77/106 1/80/106 9/78/106
f 54/81/107 58/82/107 2/54/107
f 58/82/108 49/68/108 2/54/108
f 58/82/109 8/69/109 49/68/109
f 1/83/110 57/84/110 54/81/110
f 54/81/111 57/84/111 58/82/111
f 57/84/112 8/69/112 58/82/112
