# Blender 5.1.1
# www.blender.org
mtllib Boulder_03_Flat.mtl
o Boulder_03_Flat
v -0.392239 -1.578613 -1.494817
v 1.069634 -1.679539 0.858231
v -1.276596 1.782814 -0.872610
v -0.190115 1.734536 -1.570668
v 0.264663 1.512127 1.533994
v -0.641555 -1.648391 0.352813
v -1.376732 -1.512222 -0.844571
v -1.182775 -1.626675 -1.113213
v -0.906366 -1.729428 -1.313243
v 0.031508 -1.573240 -0.796144
v 0.581221 -1.585386 0.109064
v 0.597325 -1.700939 1.173579
v 0.288188 -1.508232 1.228825
v 0.200248 0.041770 1.570668
v 0.058310 -1.507297 1.375671
v 1.323179 -0.414390 0.991816
v 1.376732 1.550053 0.945715
v 1.032146 1.451670 1.047358
v 0.611065 1.278115 1.085594
v 0.457536 1.325189 1.216256
v -0.888436 1.893028 -0.167657
v -0.222027 1.675955 0.798490
v 0.237947 1.593422 -0.790557
v -0.649016 1.552952 -1.062845
v -0.941040 1.644058 -0.969752
v -1.269858 -0.777577 -0.804640
v -0.317112 -0.522778 -1.369095
v -0.538195 -1.893028 -0.586722
v -0.421148 -1.816916 0.160265
v 0.012381 -1.769104 0.330461
v 0.770798 -0.180857 1.227392
v -0.189106 1.722077 0.210441
v 0.297987 1.468508 -0.175253
v -0.555330 1.855513 -0.379679
v -1.034024 0.384947 -0.913958
v -0.691604 0.226050 -1.028825
v -0.529274 0.174513 -1.227772
v -0.960967 -0.246421 -0.264776
v 0.482614 0.433766 -0.192044
v 0.139647 -0.557646 -0.529953
vn 0.0744 -0.9932 0.0895
vn 0.4428 -0.8846 -0.1463
vn -0.0041 -0.9600 0.2800
vn -0.3642 -0.9310 -0.0251
vn 0.2347 -0.9626 -0.1350
vn 0.0581 -0.9936 0.0973
vn 0.3644 -0.0744 0.9283
vn 0.5457 0.1196 0.8294
vn 0.2656 0.0636 0.9620
vn 0.1378 -0.9845 -0.1089
vn 0.5311 0.8308 -0.1664
vn 0.1468 0.8968 -0.4173
vn -0.2678 0.1146 -0.9567
vn -0.7737 0.0086 -0.6335
vn -0.7445 0.0152 -0.6674
vn -0.3651 0.1356 -0.9210
vn -0.7715 0.1459 -0.6192
vn -0.8631 0.0155 0.5048
vn -0.8408 0.0240 0.5409
vn 0.8676 -0.1372 -0.4780
vn 0.8266 -0.1073 -0.5524
vn 0.8301 -0.1072 -0.5471
vn 0.2456 -0.9557 -0.1620
vn -0.4307 -0.8996 0.0723
vn 0.3475 -0.8615 -0.3701
vn -0.4618 -0.8694 0.1756
vn -0.4420 -0.8159 0.3726
vn -0.2781 -0.8577 0.4324
vn 0.3580 -0.1292 0.9248
vn 0.4508 0.8917 0.0401
vn 0.5506 -0.1960 0.8114
vn 0.3961 0.0107 0.9181
vn 0.0482 0.1019 0.9936
vn 0.6666 0.1441 0.7314
vn 0.8483 -0.0240 0.5290
vn 0.5315 -0.1536 0.8330
vn 0.4510 0.8489 -0.2757
vn -0.3538 0.9079 0.2249
vn -0.2671 0.9451 0.1883
vn -0.1082 0.9721 0.2079
vn 0.1104 0.9471 -0.3012
vn -0.1173 0.9640 0.2387
vn 0.1870 0.9776 0.0961
vn -0.3013 -0.0241 -0.9532
vn 0.4103 0.9071 0.0941
vn -0.7840 -0.1149 -0.6100
vn -0.3172 -0.0163 -0.9482
vn -0.8745 0.0092 0.4849
vn -0.6290 -0.0340 -0.7767
vn -0.4448 0.1766 -0.8781
vn -0.5323 0.1788 -0.8274
vn -0.8261 0.1157 -0.5515
vn -0.8277 0.0502 0.5589
vn -0.8229 0.0021 0.5681
vn -0.8389 0.0477 0.5421
vn -0.9053 0.1094 0.4104
vn 0.8678 0.0172 -0.4966
vn 0.7775 -0.0554 -0.6264
vn 0.8025 -0.0359 -0.5955
vn 0.7967 -0.0509 -0.6022
vn 0.8541 0.0448 -0.5181
vn 0.8658 -0.0926 -0.4918
vn 0.8547 -0.0841 -0.5123
vt 0.498679 0.062500
vt 0.500000 0.158300
vt 0.437500 0.125000
vt 0.624249 0.081007
vt 0.437500 0.250029
vt 0.513091 0.000000
vt 0.437500 0.000000
vt 0.625000 0.000000
vt 0.375000 0.128107
vt 0.375000 0.251983
vt 0.619637 0.354022
vt 0.499495 0.375155
vt 0.500000 0.249357
vt 0.378976 0.375000
vt 0.437500 0.499873
vt 0.625000 0.499991
vt 0.562500 0.499958
vt 0.622488 0.187500
vt 0.622989 0.250000
vt 0.362654 0.565433
vt 0.375000 0.496940
vt 0.437500 0.687500
vt 0.500817 0.749592
vt 0.437500 0.750000
vt 0.437500 0.849078
vt 0.500000 0.859689
vt 0.437500 0.998971
vt 0.562500 0.863311
vt 0.625000 0.750085
vt 0.624612 0.918069
vt 0.625000 1.000000
vt 0.513091 1.000000
vt 0.375000 1.000000
vt 0.375000 0.940568
vt 0.250000 0.498596
vt 0.127062 0.500088
vt 0.227792 0.687500
vt 0.725034 0.592104
vt 0.798832 0.656171
vt 0.791294 0.748224
vt 0.875000 0.500000
vt 0.874252 0.562500
vt 0.767081 0.500000
vt 0.624337 0.678108
vt 0.375000 0.000202
vt 0.565509 0.625000
vt 0.437500 0.625000
vt 0.500000 0.502221
vt 0.375000 0.750000
vt 0.375000 0.687500
vt 0.184432 0.750000
vt 0.371940 0.500000
vt 0.125000 0.749798
vt 0.125000 0.621893
vt 0.875000 0.668993
vt 0.875000 0.750000
vt 0.625085 0.750000
s 0
usemtl Boulder_03_Flat_Mat
f 28/1/1 30/2/1 29/3/1
f 10/4/2 30/2/2 28/1/2
f 29/3/3 30/2/3 13/5/3
f 9/6/4 28/1/4 8/7/4
f 1/8/5 10/4/5 9/6/5
f 6/9/6 13/5/6 15/10/6
f 16/11/7 31/12/7 12/13/7
f 14/14/8 31/12/8 20/15/8
f 17/16/9 18/17/9 31/12/9
f 12/13/10 30/2/10 11/18/10 2/19/10
f 20/15/11 22/20/11 5/21/11
f 34/22/12 24/23/12 25/24/12
f 35/25/13 36/26/13 8/27/13
f 24/23/14 37/28/14 36/26/14
f 24/23/15 4/29/15 37/28/15
f 27/30/16 1/31/16 9/32/16
f 8/27/17 7/33/17 26/34/17
f 14/35/18 22/20/18 15/36/18
f 22/20/19 38/37/19 15/36/19
f 39/38/20 40/39/20 27/40/20
f 2/41/21 11/42/21 16/43/21
f 39/38/22 23/44/22 17/16/22
f 10/4/23 11/18/23 30/2/23
f 7/45/24 8/7/24 28/1/24
f 9/6/25 10/4/25 28/1/25
f 6/9/26 7/45/26 28/1/26 29/3/26
f 30/2/27 12/13/27 13/5/27
f 6/9/28 29/3/28 13/5/28
f 14/14/29 13/5/29 12/13/29 31/12/29
f 33/46/30 32/47/30 20/15/30 19/48/30
f 12/13/31 2/19/31 16/11/31
f 31/12/32 16/11/32 17/16/32
f 31/12/33 18/17/33 19/48/33
f 20/15/34 31/12/34 19/48/34
f 14/14/35 20/15/35 5/21/35
f 15/10/36 13/5/36 14/14/36
f 24/23/37 34/22/37 32/47/37 33/46/37
f 19/48/38 18/17/38 33/46/38
f 23/44/39 33/46/39 18/17/39 17/16/39
f 33/46/40 23/44/40 24/23/40
f 25/24/41 3/49/41 21/50/41 34/22/41
f 23/44/42 4/29/42 24/23/42
f 34/22/43 21/50/43 22/20/43 32/47/43
f 26/34/44 3/49/44 25/24/44 35/25/44
f 22/20/45 20/15/45 32/47/45
f 37/28/46 27/30/46 36/26/46
f 35/25/47 25/24/47 24/23/47 36/26/47
f 3/49/48 26/51/48 38/37/48 21/50/48
f 37/28/49 4/29/49 27/30/49
f 36/26/50 27/30/50 9/32/50
f 36/26/51 9/32/51 8/27/51
f 35/25/52 8/27/52 26/34/52
f 5/52/53 22/20/53 14/35/53
f 22/20/54 21/50/54 38/37/54
f 38/37/55 7/53/55 6/54/55 15/36/55
f 7/53/56 38/37/56 26/51/56
f 27/40/57 40/39/57 10/55/57 1/56/57
f 11/42/58 40/39/58 39/38/58
f 17/16/59 16/43/59 39/38/59
f 16/43/60 11/42/60 39/38/60
f 11/42/61 10/55/61 40/39/61
f 23/44/62 27/40/62 4/57/62
f 39/38/63 27/40/63 23/44/63
