# Blender 5.1.1
# www.blender.org
mtllib Rock_07_Pebble.mtl
o Rock_07_Pebble
v 0.022638 0.373888 0.286936
v 0.145437 -0.306804 0.337801
v 0.053257 0.490283 -0.113789
v -0.254457 0.208674 -0.267840
v -0.305539 0.354935 -0.017058
v -0.453614 -0.063190 -0.104706
v 0.368085 -0.051118 0.202103
v 0.176663 0.170248 0.368138
v 0.372444 0.323890 0.027037
v 0.453614 -0.107459 -0.052092
v 0.216826 0.108395 -0.346776
v 0.151104 -0.490283 -0.044862
v 0.088960 -0.267885 -0.316990
v -0.016363 -0.454639 -0.211885
v -0.165709 -0.085792 -0.368138
v -0.255164 0.410549 0.131926
v -0.188070 -0.119658 0.350499
v -0.325279 0.077075 0.247354
v -0.268803 -0.366742 0.103877
v -0.269977 -0.393646 -0.140951
vn 0.9484 0.1250 0.2914
vn 0.3406 0.8956 0.2862
vn 0.8357 0.2472 -0.4904
vn -0.0277 0.9605 0.2769
vn 0.0023 -0.0636 0.9980
vn -0.0356 0.5093 -0.8598
vn -0.6721 0.0491 -0.7388
vn -0.8383 0.3790 -0.3918
vn -0.6584 -0.2897 -0.6947
vn -0.3415 -0.4805 -0.8078
vn -0.8699 -0.4898 0.0580
vn -0.8749 -0.2461 0.4170
vn -0.7977 -0.2750 0.5367
vn -0.9320 0.2824 0.2272
vn -0.9379 0.2718 0.2156
vn -0.4206 0.7438 -0.5195
vn -0.1283 -0.4305 -0.8934
vn -0.2282 -0.9734 0.0211
vn -0.2455 -0.9635 0.1071
vn -0.3180 -0.6157 0.7210
vn -0.4137 0.3743 0.8299
vn -0.0965 0.2947 -0.9507
vn 0.1145 -0.1170 -0.9865
vn 0.4838 -0.6203 -0.6174
vn -0.1121 -0.8967 0.4283
vn -0.3209 0.2545 0.9123
vn -0.2172 0.2154 0.9521
vn -0.3929 0.8971 -0.2020
vn 0.5631 0.5926 -0.5760
vn 0.6413 -0.2746 -0.7165
vn 0.6402 -0.5167 -0.5685
vn 0.7527 -0.5892 0.2937
vn 0.7886 -0.4884 0.3736
vn 0.5914 -0.0897 0.8014
vn 0.7847 0.2547 0.5651
vn 0.5209 0.6256 0.5808
vt 0.181819 0.000000
vt 0.227273 0.078731
vt 0.136365 0.078731
vt 0.255794 0.186792
vt 0.349919 0.078731
vt 0.404972 0.176975
vt 0.545455 0.000000
vt 0.560047 0.132187
vt 0.500000 0.078731
vt 0.295105 0.276162
vt 0.077911 0.179975
vt 0.181819 0.157461
vt 0.109212 0.283221
vt 0.494822 0.303126
vt 0.623046 0.291854
vt 0.626988 0.456142
vt 0.370377 0.326596
vt 0.463922 0.456142
vt 0.681818 0.393651
vt 0.762934 0.253153
vt 0.798172 0.349579
vt 0.887733 0.351914
vt 0.818182 0.472382
vt 0.021358 0.351914
vt 0.163659 0.346376
vt 0.090910 0.472382
vt 0.199979 0.346376
vt 0.356897 0.326596
vt 0.272728 0.472382
vt 0.692328 0.198172
vt 0.832629 0.182485
vt 0.962427 0.179975
vt 0.681818 0.078731
vt 0.752268 0.043293
vt 0.884096 0.043293
vt 0.954545 0.078731
s 0
usemtl Rock_07_Pebble_Mat
f 10/1/1 9/2/1 7/3/1
f 1/4/2 9/5/2 3/6/2
f 10/7/3 11/8/3 9/9/3
f 1/4/4 3/6/4 16/10/4
f 2/11/5 8/12/5 17/13/5
f 3/6/6 11/8/6 4/14/6
f 4/14/7 15/15/7 6/16/7
f 5/17/8 4/14/8 6/18/8
f 6/16/9 15/15/9 20/19/9
f 15/15/10 14/20/10 20/19/10
f 20/21/11 19/22/11 6/23/11
f 19/24/12 18/25/12 6/26/12
f 19/24/13 17/13/13 18/25/13
f 18/27/14 5/28/14 6/29/14
f 18/27/15 16/10/15 5/28/15
f 3/6/16 4/14/16 5/28/16
f 13/30/17 14/20/17 15/15/17
f 14/20/18 12/31/18 20/21/18
f 12/31/19 19/22/19 20/21/19
f 2/11/20 17/13/20 19/24/20
f 1/4/21 16/10/21 18/25/21
f 4/14/22 11/8/22 15/15/22
f 11/8/23 13/30/23 15/15/23
f 13/30/24 12/31/24 14/20/24
f 12/31/25 2/32/25 19/22/25
f 17/13/26 1/4/26 18/25/26
f 17/13/27 8/12/27 1/4/27
f 16/10/28 3/6/28 5/28/28
f 9/9/29 11/8/29 3/6/29
f 11/33/30 10/34/30 13/30/30
f 10/34/31 12/31/31 13/30/31
f 10/35/32 2/32/32 12/31/32
f 10/35/33 7/36/33 2/32/33
f 7/3/34 8/12/34 2/11/34
f 7/3/35 9/2/35 8/12/35
f 9/2/36 1/4/36 8/12/36
