# Blender 5.1.1
# www.blender.org
mtllib Rock_06_Small.mtl
o Rock_06_Small
v -0.117189 -0.599325 -0.155728
v 0.297809 0.087156 0.640807
v -0.331673 -0.092297 0.491538
v -0.566884 0.380005 0.059618
v -0.276774 -0.142552 -0.552158
v 0.130423 0.599325 0.136987
v 0.423885 -0.408172 0.083690
v 0.132053 -0.217541 0.662198
v 0.317955 -0.387359 -0.577463
v 0.524067 -0.316349 -0.120407
v -0.500103 0.231277 0.455354
v -0.372531 -0.405896 -0.130572
v 0.566884 0.140521 0.268582
v 0.354040 0.518527 0.499879
v -0.225318 0.590976 0.674706
v 0.046242 -0.111283 -0.674706
v 0.349557 0.264091 -0.274871
v -0.181785 0.369932 -0.297771
vn 0.1548 -0.9125 0.3788
vn -0.3898 -0.7832 0.4844
vn 0.7764 -0.3734 0.5077
vn -0.3827 -0.1832 0.9055
vn -0.5447 -0.6501 -0.5298
vn -0.4839 -0.1556 0.8612
vn -0.3092 -0.6827 -0.6621
vn -0.1844 0.9566 -0.2257
vn -0.6042 0.4413 -0.6635
vn 0.5883 0.3170 -0.7439
vn 0.1851 0.8081 -0.5593
vn 0.1623 0.6550 -0.7380
vn -0.3528 0.4677 -0.8105
vn -0.3572 0.9072 -0.2222
vn 0.1588 0.9799 0.1203
vn 0.6504 0.7205 -0.2404
vn 0.8007 0.5678 -0.1911
vn 0.9311 0.1156 -0.3461
vn -0.2542 -0.5342 -0.8063
vn -0.9375 -0.1566 -0.3108
vn -0.9647 -0.2548 0.0670
vn -0.8372 0.4502 0.3105
vn 0.8011 0.0889 0.5919
vn 0.8560 0.2863 -0.4305
vn 0.3086 0.2588 0.9153
vn 0.0865 0.0228 0.9960
vn 0.8973 -0.3319 0.2911
vn 0.5372 -0.8359 -0.1124
vn 0.3661 -0.9264 -0.0878
vn -0.5246 -0.7459 0.4104
vn -0.8663 -0.4209 0.2690
vn 0.7684 -0.3820 0.5135
vt 0.181819 0.000000
vt 0.237455 0.132921
vt 0.136365 0.078731
vt 0.909091 0.000000
vt 0.942188 0.100135
vt 0.818383 0.115404
vt 0.070417 0.192957
vt 0.163043 0.273964
vt 0.755000 0.115404
vt 0.839041 0.278792
vt 0.434167 0.122163
vt 0.549018 0.163633
vt 0.526162 0.281504
vt 0.755281 0.233180
vt 0.394977 0.260639
vt 0.689098 0.314921
vt 0.772727 0.393651
vt 0.616208 0.393651
vt 0.454546 0.314921
vt 0.409092 0.393651
vt 0.500000 0.393651
vt 0.454546 0.472382
vt 0.853753 0.410771
vt 0.909091 0.314921
vt 0.055339 0.410771
vt 0.058448 0.314921
vt 0.136365 0.393651
vt 0.283075 0.393651
vt 0.290966 0.236191
vt 0.979507 0.192957
vt 0.276205 0.150958
vt 0.474925 0.122163
vt 0.590909 0.078731
s 0
usemtl Rock_06_Small_Mat
f 1/1/1 7/2/1 8/3/1
f 1/4/2 8/5/2 3/6/2
f 2/7/3 7/2/3 13/8/3
f 3/9/4 8/5/4 15/10/4
f 1/11/5 12/12/5 5/13/5
f 3/9/6 15/10/6 11/14/6
f 1/11/7 5/13/7 9/15/7
f 4/16/8 15/10/8 18/17/8
f 5/13/9 4/16/9 18/18/9
f 9/15/10 16/19/10 17/20/10
f 17/20/11 18/21/11 6/22/11
f 17/20/12 16/19/12 18/21/12
f 16/19/13 5/13/13 18/21/13
f 18/17/14 15/10/14 6/23/14
f 15/10/15 14/24/15 6/23/15
f 6/25/16 14/26/16 17/27/16
f 14/26/17 13/8/17 17/27/17
f 13/8/18 9/15/18 17/28/18
f 9/15/19 5/13/19 16/19/19
f 12/12/20 4/16/20 5/13/20
f 12/12/21 11/14/21 4/16/21
f 11/14/22 15/10/22 4/16/22
f 2/7/23 13/8/23 14/26/23
f 10/29/24 9/15/24 13/8/24
f 15/10/25 2/30/25 14/24/25
f 15/10/26 8/5/26 2/30/26
f 13/8/27 7/2/27 10/29/27
f 10/29/28 7/31/28 9/15/28
f 7/31/29 1/11/29 9/15/29
f 1/32/30 3/33/30 12/12/30
f 3/33/31 11/14/31 12/12/31
f 8/3/32 7/2/32 2/7/32
